<svg width="86" height="89" viewBox="0 0 86 89" fill="none" xmlns="http://www.w3.org/2000/svg">
<path fill-rule="evenodd" clip-rule="evenodd" d="M4.26957 1H80.7288C82.5276 1 84.0089 2.47078 84.0089 4.28015V84.4957C84.0089 86.305 82.5276 87.7758 80.7288 87.7758H4.26957C2.47078 87.7758 1 86.305 1 84.4957V4.28015C1 2.47078 2.47078 1 4.26957 1Z" stroke="white" stroke-width="2" stroke-linecap="round"/>
<path d="M1 20.0249H84.0089" stroke="white" stroke-width="2" stroke-linecap="round"/>
<path fill-rule="evenodd" clip-rule="evenodd" d="M17.0305 41.9546H68.5818C70.5604 41.9546 72.1793 43.5841 72.1793 45.5628V73.248C72.1793 75.2373 70.5604 76.8562 68.5818 76.8562H17.0305C15.0413 76.8562 13.4224 75.2373 13.4224 73.248V45.5628C13.4224 43.5841 15.0413 41.9546 17.0305 41.9546Z" stroke="white" stroke-width="2" stroke-linecap="round"/>
<path fill-rule="evenodd" clip-rule="evenodd" d="M20.9668 6.74561C23.1677 6.74561 24.9559 8.53382 24.9559 10.7347C24.9559 12.9356 23.1677 14.7132 20.9668 14.7132C18.7765 14.7132 16.9883 12.9356 16.9883 10.7347C16.9883 8.53382 18.7765 6.74561 20.9668 6.74561Z" stroke="white" stroke-width="2" stroke-linecap="round"/>
<path fill-rule="evenodd" clip-rule="evenodd" d="M63.7143 6.74561C65.9152 6.74561 67.7034 8.53382 67.7034 10.7347C67.7034 12.9356 65.9152 14.7132 63.7143 14.7132C61.524 14.7132 59.7358 12.9356 59.7358 10.7347C59.7358 8.53382 61.524 6.74561 63.7143 6.74561Z" stroke="white" stroke-width="2" stroke-linecap="round"/>
<path fill-rule="evenodd" clip-rule="evenodd" d="M14.8721 28.3838H69.7563C71.0896 28.3838 72.1794 29.4736 72.1794 30.8069C72.1794 32.1401 71.0896 33.2299 69.7563 33.2299H14.8721C13.5388 33.2299 12.449 32.1401 12.449 30.8069C12.449 29.4736 13.5388 28.3838 14.8721 28.3838Z" stroke="white" stroke-width="2" stroke-linecap="round"/>
<path d="M49.7049 7.02051H34.9231C34.1342 7.02051 33.4946 7.66005 33.4946 8.44896V13.0094C33.4946 13.7983 34.1342 14.4379 34.9231 14.4379H49.7049C50.4938 14.4379 51.1334 13.7983 51.1334 13.0094V8.44896C51.1334 7.66005 50.4938 7.02051 49.7049 7.02051Z" stroke="white" stroke-width="2" stroke-linecap="round"/>
</svg>
