<svg width="86" height="86" viewBox="0 0 86 86" fill="none" xmlns="http://www.w3.org/2000/svg">
<path d="M81.6705 1H4.17434C2.4212 1 1 2.41646 1 4.16376V81.5541C1 83.3014 2.4212 84.7179 4.17434 84.7179H81.6705C83.4236 84.7179 84.8448 83.3014 84.8448 81.5541V4.16376C84.8448 2.41646 83.4236 1 81.6705 1Z" stroke="white" stroke-width="2" stroke-linecap="round"/>
<path d="M63.1745 35.833C71.2448 35.833 77.7871 29.2907 77.7871 21.2204C77.7871 13.1502 71.2448 6.60791 63.1745 6.60791C55.1043 6.60791 48.562 13.1502 48.562 21.2204C48.562 29.2907 55.1043 35.833 63.1745 35.833Z" stroke="white" stroke-width="2" stroke-linecap="round"/>
<path d="M63.1746 27.0401C66.3887 27.0401 68.9942 24.4346 68.9942 21.2205C68.9942 18.0064 66.3887 15.4009 63.1746 15.4009C59.9605 15.4009 57.355 18.0064 57.355 21.2205C57.355 24.4346 59.9605 27.0401 63.1746 27.0401Z" stroke="white" stroke-width="2" stroke-linecap="round"/>
<path d="M63.0478 57.4609C66.2911 57.4609 68.9203 54.8316 68.9203 51.5883C68.9203 48.345 66.2911 45.7158 63.0478 45.7158C59.8045 45.7158 57.1753 48.345 57.1753 51.5883C57.1753 54.8316 59.8045 57.4609 63.0478 57.4609Z" stroke="white" stroke-width="2" stroke-linecap="round"/>
<path d="M22.543 60.2964C27.3524 60.2964 31.2512 56.3976 31.2512 51.5881C31.2512 46.7787 27.3524 42.8799 22.543 42.8799C17.7335 42.8799 13.8347 46.7787 13.8347 51.5881C13.8347 56.3976 17.7335 60.2964 22.543 60.2964Z" stroke="white" stroke-width="2" stroke-linecap="round"/>
<path d="M22.5433 28.532C26.5522 28.532 29.802 25.2821 29.802 21.2733C29.802 17.2645 26.5522 14.0146 22.5433 14.0146C18.5345 14.0146 15.2847 17.2645 15.2847 21.2733C15.2847 25.2821 18.5345 28.532 22.5433 28.532Z" stroke="white" stroke-width="2" stroke-linecap="round"/>
<path d="M1 70.042H84.8342" stroke="white" stroke-width="2" stroke-linecap="round"/>
<path d="M16.8503 80.4009C18.5158 80.4009 19.866 79.0507 19.866 77.3852C19.866 75.7198 18.5158 74.3696 16.8503 74.3696C15.1849 74.3696 13.8347 75.7198 13.8347 77.3852C13.8347 79.0507 15.1849 80.4009 16.8503 80.4009Z" stroke="white" stroke-width="2" stroke-linecap="round"/>
<path d="M28.4897 80.4009C30.1552 80.4009 31.5054 79.0507 31.5054 77.3852C31.5054 75.7198 30.1552 74.3696 28.4897 74.3696C26.8243 74.3696 25.4741 75.7198 25.4741 77.3852C25.4741 79.0507 26.8243 80.4009 28.4897 80.4009Z" stroke="white" stroke-width="2" stroke-linecap="round"/>
<path d="M40.1182 80.4009C41.7836 80.4009 43.1338 79.0507 43.1338 77.3852C43.1338 75.7198 41.7836 74.3696 40.1182 74.3696C38.4527 74.3696 37.1025 75.7198 37.1025 77.3852C37.1025 79.0507 38.4527 80.4009 40.1182 80.4009Z" stroke="white" stroke-width="2" stroke-linecap="round"/>
<path d="M51.7471 80.4009C53.4125 80.4009 54.7627 79.0507 54.7627 77.3852C54.7627 75.7198 53.4125 74.3696 51.7471 74.3696C50.0816 74.3696 48.7314 75.7198 48.7314 77.3852C48.7314 79.0507 50.0816 80.4009 51.7471 80.4009Z" stroke="white" stroke-width="2" stroke-linecap="round"/>
</svg>
