<svg width="95" height="72" viewBox="0 0 95 72" fill="none" xmlns="http://www.w3.org/2000/svg">
<path d="M89.691 52.6572H4.55526C2.59174 52.6572 1 54.1732 1 56.0432V67.0158C1 68.8858 2.59174 70.4018 4.55526 70.4018H89.691C91.6545 70.4018 93.2462 68.8858 93.2462 67.0158V56.0432C93.2462 54.1732 91.6545 52.6572 89.691 52.6572Z" stroke="white" stroke-width="2" stroke-linecap="round" stroke-linejoin="round"/>
<path d="M13.4859 64.6348C15.2039 64.6348 16.5967 63.242 16.5967 61.5239C16.5967 59.8059 15.2039 58.4131 13.4859 58.4131C11.7678 58.4131 10.375 59.8059 10.375 61.5239C10.375 63.242 11.7678 64.6348 13.4859 64.6348Z" stroke="white" stroke-width="2" stroke-linecap="round" stroke-linejoin="round"/>
<path d="M25.0403 64.6348C26.7584 64.6348 28.1511 63.242 28.1511 61.5239C28.1511 59.8059 26.7584 58.4131 25.0403 58.4131C23.3222 58.4131 21.9294 59.8059 21.9294 61.5239C21.9294 63.242 23.3222 64.6348 25.0403 64.6348Z" stroke="white" stroke-width="2" stroke-linecap="round" stroke-linejoin="round"/>
<path d="M68.4863 61.5239H73.47" stroke="white" stroke-width="2" stroke-linecap="round" stroke-linejoin="round"/>
<path d="M80.5276 61.5239H85.5007" stroke="white" stroke-width="2" stroke-linecap="round" stroke-linejoin="round"/>
<path fill-rule="evenodd" clip-rule="evenodd" d="M47.1229 52.6572H6.47021L27.8018 21.4429H47.1229H66.4334L87.7756 52.6572H47.1229Z" stroke="white" stroke-width="2" stroke-linecap="round" stroke-linejoin="round"/>
<path fill-rule="evenodd" clip-rule="evenodd" d="M28.1934 21.4427H66.0526V1H28.1934V21.4427Z" stroke="white" stroke-width="2" stroke-linecap="round" stroke-linejoin="round"/>
<path d="M56.4556 61.5239H61.4287" stroke="white" stroke-width="2" stroke-linecap="round" stroke-linejoin="round"/>
</svg>
