<svg width="79" height="94" viewBox="0 0 79 94" fill="none" xmlns="http://www.w3.org/2000/svg">
<path d="M73.9886 1H4.38596C2.51595 1 1 2.51595 1 4.38596V88.654C1 90.5241 2.51595 92.04 4.38596 92.04H73.9886C75.8586 92.04 77.3746 90.5241 77.3746 88.654V4.38596C77.3746 2.51595 75.8586 1 73.9886 1Z" stroke="white" stroke-width="2" stroke-linecap="round"/>
<path d="M1 15.2529H77.3746" stroke="white" stroke-width="2" stroke-linecap="round"/>
<path d="M9.36963 7.91992H14.3533" stroke="white" stroke-width="2" stroke-linecap="round"/>
<path d="M21.4106 7.91992H26.3944" stroke="white" stroke-width="2" stroke-linecap="round"/>
<path d="M51.9902 7.91992H56.9634" stroke="white" stroke-width="2" stroke-linecap="round"/>
<path d="M64.0212 7.91992H69.0049" stroke="white" stroke-width="2" stroke-linecap="round"/>
<path d="M39.2402 11.084C40.9583 11.084 42.3511 9.69123 42.3511 7.97316C42.3511 6.25508 40.9583 4.8623 39.2402 4.8623C37.5222 4.8623 36.1294 6.25508 36.1294 7.97316C36.1294 9.69123 37.5222 11.084 39.2402 11.084Z" stroke="white" stroke-width="2" stroke-linecap="round"/>
<path fill-rule="evenodd" clip-rule="evenodd" d="M26.2573 15.2529H52.6784V17.676C52.6784 19.5383 51.1547 21.062 49.2924 21.062H29.6433C27.781 21.062 26.2573 19.5383 26.2573 17.676V15.2529Z" stroke="white" stroke-width="2" stroke-linecap="round"/>
<path d="M65.7699 30H13.2301C11.4462 30 10 31.4408 10 33.2182V79.7818C10 81.5592 11.4462 83 13.2301 83H65.7699C67.5538 83 69 81.5592 69 79.7818V33.2182C69 31.4408 67.5538 30 65.7699 30Z" stroke="white" stroke-width="2" stroke-linecap="round"/>
<path fill-rule="evenodd" clip-rule="evenodd" d="M17.4326 52.583H27.4635L27.4529 60.8786C27.4529 63.6403 25.3156 65.6401 22.4481 65.6401C19.57 65.6401 17.4432 63.6403 17.4432 60.8786L17.4326 52.583Z" stroke="white" stroke-width="2" stroke-linecap="round"/>
<path d="M22.448 65.6401V76.3588" stroke="white" stroke-width="2" stroke-linecap="round"/>
<path d="M18.5117 76.3589H26.3841" stroke="white" stroke-width="2" stroke-linecap="round"/>
<path fill-rule="evenodd" clip-rule="evenodd" d="M33.1245 52.583H43.1448V60.8786C43.1448 63.6403 41.0074 65.6401 38.14 65.6401C35.2619 65.6401 33.1351 63.6403 33.1245 60.8786V52.583Z" stroke="white" stroke-width="2" stroke-linecap="round"/>
<path d="M38.1399 65.6401V76.3588" stroke="white" stroke-width="2" stroke-linecap="round"/>
<path d="M34.1931 76.3589H42.0761" stroke="white" stroke-width="2" stroke-linecap="round"/>
<path d="M49.3344 75.4914C56.5296 73.026 61.7037 66.2117 61.7037 58.1807C61.7037 48.0863 53.5139 39.8965 43.4195 39.8965C38.4041 39.8965 33.8648 41.9175 30.5635 45.187" stroke="white" stroke-width="2" stroke-linecap="round"/>
</svg>
