<svg width="96" height="62" viewBox="0 0 96 62" fill="none" xmlns="http://www.w3.org/2000/svg">
<path d="M91.5638 1H4.17434C2.4212 1 1 2.41646 1 4.16376V57.2281C1 58.9754 2.4212 60.3919 4.17434 60.3919H91.5638C93.317 60.3919 94.7382 58.9754 94.7382 57.2281V4.16376C94.7382 2.41646 93.317 1 91.5638 1Z" stroke="white" stroke-width="2" stroke-linecap="round"/>
<path d="M56.5298 12.6392H12.1419C11.4056 12.6392 10.8087 13.2124 10.8087 13.9195V47.4722C10.8087 48.1793 11.4056 48.7525 12.1419 48.7525H56.5298C57.2661 48.7525 57.863 48.1793 57.863 47.4722V13.9195C57.863 13.2124 57.2661 12.6392 56.5298 12.6392Z" stroke="white" stroke-width="2" stroke-linecap="round"/>
<path d="M68.6874 1V60.3813" stroke="white" stroke-width="2" stroke-linecap="round"/>
<path fill-rule="evenodd" clip-rule="evenodd" d="M81.7129 36.7324C84.8766 36.7324 87.4373 39.2931 87.4373 42.4568C87.4373 45.6206 84.8766 48.1812 81.7129 48.1812C78.5491 48.1812 75.9779 45.6206 75.9779 42.4568C75.9779 39.2931 78.5491 36.7324 81.7129 36.7324Z" stroke="white" stroke-width="2" stroke-linecap="round"/>
<path d="M79.385 29.1143H84.0301" stroke="white" stroke-width="2" stroke-linecap="round"/>
<path d="M87.1622 12.6392H76.2531C75.6746 12.6392 75.2056 13.2124 75.2056 13.9195V18.025C75.2056 18.7321 75.6746 19.3053 76.2531 19.3053H87.1622C87.7408 19.3053 88.2098 18.7321 88.2098 18.025V13.9195C88.2098 13.2124 87.7408 12.6392 87.1622 12.6392Z" stroke="white" stroke-width="2" stroke-linecap="round"/>
</svg>
