<svg width="15" height="18" viewBox="0 0 15 18" fill="none" xmlns="http://www.w3.org/2000/svg">
<path fill-rule="evenodd" clip-rule="evenodd" d="M7.2 0C4.96325 0 3.15 1.81325 3.15 4.05C3.15 6.28675 4.96325 8.1 7.2 8.1C9.43675 8.1 11.25 6.28675 11.25 4.05C11.25 1.81325 9.43675 0 7.2 0ZM4.95 4.05C4.95 2.80736 5.95736 1.8 7.2 1.8C8.44264 1.8 9.45 2.80736 9.45 4.05C9.45 5.29264 8.44264 6.3 7.2 6.3C5.95736 6.3 4.95 5.29264 4.95 4.05Z" fill="#202121"/>
<path fill-rule="evenodd" clip-rule="evenodd" d="M7.2 9.45C3.22355 9.45 0 12.6736 0 16.65V18H14.4V16.65C14.4 12.6736 11.1764 9.45 7.2 9.45ZM7.2 11.25C10.0308 11.25 12.3528 13.4282 12.5815 16.2H1.81848C2.04715 13.4282 4.3692 11.25 7.2 11.25Z" fill="#202121"/>
</svg>
