<svg width="18" height="17" viewBox="0 0 18 17" fill="none" xmlns="http://www.w3.org/2000/svg">
<path fill-rule="evenodd" clip-rule="evenodd" d="M9.84731 2.75812L9.84731 15.2695H12.9864V17H5.01309V15.2695H8.15298L8.15298 2.76078L4.56583 2.76641L7.80064 12.366L7.28939 12.7417C6.33242 13.4449 5.16724 13.8597 3.9106 13.8597C2.65395 13.8597 1.48877 13.4449 0.5318 12.7417L0 12.3509L3.63288 2.76788L2.04564 2.77037L2.04304 1.03983L8.15298 1.03024V0H9.84731V1.02758L15.9755 1.01796L15.9781 2.7485L14.3607 2.75104L18 12.3509L17.4682 12.7417C16.5112 13.4449 15.346 13.8597 14.0894 13.8597C12.8328 13.8597 11.6676 13.4449 10.7106 12.7417L10.1994 12.366L13.4389 2.75249L9.84731 2.75812ZM5.77321 11.667L4.03343 6.50403L2.07151 11.6793C2.6287 11.9682 3.25221 12.1291 3.9106 12.1291C4.57827 12.1291 5.21007 11.9637 5.77321 11.667ZM13.9666 6.50403L12.2268 11.667C12.7899 11.9637 13.4217 12.1291 14.0894 12.1291C14.7478 12.1291 15.3713 11.9682 15.9285 11.6793L13.9666 6.50403Z" fill="#6F7070"/>
</svg>
