<svg width="149" height="41" viewBox="0 0 149 41" fill="none" xmlns="http://www.w3.org/2000/svg">
<path fill-rule="evenodd" clip-rule="evenodd" d="M4.88337 4.95138V18.5452H17.4279V23.5094H4.88337V35.7785H24.4422V40.7428H4.88337H0V35.7785V23.5094V18.5452V4.95138V0H4.88337H24.4422V4.95138H4.88337ZM97.9592 32.7691C97.9592 35.7271 100.547 41 108.436 41C116.326 41 119.535 36.3573 119.535 32.7691V13.5809H114.639V32.7691C114.639 34.6597 111.366 36.1515 108.728 36.1515C106.09 36.1515 102.843 34.8269 102.843 32.7691V13.5809H97.9592V32.7691ZM128.464 12.3206L136.836 22.712L145.207 12.3206L149 15.4586L139.994 26.6346L149 37.8105L145.207 40.9486L136.836 30.5571L128.464 40.9486L124.672 37.8105L133.678 26.6346L124.672 15.4586L128.464 12.3206ZM93.0251 2.53356V40.7428H88.1417V2.53356H93.0251ZM83.3091 17.6321H73.7072V12.6678H83.3091V17.6321ZM83.3091 27.5477H73.7072V22.5834H83.3091V27.5477ZM83.1442 40.7428H58.1058H55.9241H53.2224V17.6321H54.2372H58.1058H64.2069V9.9542H69.1029V30.7114H64.2069V22.5834H58.1058V35.7785H83.1442V40.7428ZM28.2602 13.8767L36.2765 33.0521L44.2928 13.8767L48.8084 15.7801L38.4455 40.5627H34.1075L23.7446 15.7801L28.2602 13.8767Z" fill="white"/>
</svg>
