<svg width="266" height="73" viewBox="0 0 266 73" fill="none" xmlns="http://www.w3.org/2000/svg">
<path fill-rule="evenodd" clip-rule="evenodd" d="M8.69479 8.81587V33.0194H31.0302V41.8582H8.69479V63.7033H43.5191V72.542H8.69479H0V63.7033V41.8582V33.0194V8.81587V0H8.69479H43.5191V8.81587H8.69479ZM174.415 58.345C174.415 63.6117 179.022 73 193.069 73C207.117 73 212.83 64.7337 212.83 58.345V24.1807H204.113V58.345C204.113 61.7111 198.286 64.3673 193.589 64.3673C188.891 64.3673 183.11 62.0088 183.11 58.345V24.1807H174.415V58.345ZM228.729 21.9366L243.635 40.4385L258.54 21.9366L265.293 27.5238L249.258 47.4225L265.293 67.3212L258.54 72.9084L243.635 54.4065L228.729 72.9084L221.977 67.3212L238.011 47.4225L221.977 27.5238L228.729 21.9366ZM165.63 4.51098V72.542H156.935V4.51098H165.63ZM148.331 31.3937H131.235V22.5549H148.331V31.3937ZM148.331 49.0483H131.235V40.2095H148.331V49.0483ZM148.037 72.542H103.457H99.5723H94.7619V31.3937H96.5686H103.457H114.32V17.7233H123.037V54.6813H114.32V40.2095H103.457V63.7033H148.037V72.542ZM50.3169 24.7073L64.5899 58.8488L78.8629 24.7073L86.9027 28.0963L68.4517 72.2215H60.728L42.277 28.0963L50.3169 24.7073Z" fill="white"/>
</svg>
