<svg width="13" height="16" viewBox="0 0 13 16" fill="none" xmlns="http://www.w3.org/2000/svg">
<path fill-rule="evenodd" clip-rule="evenodd" d="M6.30012 3.54382C4.77786 3.54382 3.54382 4.77786 3.54382 6.30012C3.54382 7.82238 4.77786 9.05642 6.30012 9.05642C7.82238 9.05642 9.05642 7.82238 9.05642 6.30012C9.05642 4.77786 7.82238 3.54382 6.30012 3.54382ZM5.11885 6.30012C5.11885 5.64772 5.64772 5.11885 6.30012 5.11885C6.95252 5.11885 7.48139 5.64772 7.48139 6.30012C7.48139 6.95252 6.95252 7.48139 6.30012 7.48139C5.64772 7.48139 5.11885 6.95252 5.11885 6.30012Z" fill="#6F7070"/>
<path fill-rule="evenodd" clip-rule="evenodd" d="M6.30012 0C2.82066 0 0 2.82066 0 6.30012C0 7.45944 0.402465 8.62187 0.949739 9.67733C1.50056 10.7396 2.22583 11.7464 2.93591 12.6087C3.64791 13.4732 4.35771 14.2082 4.88867 14.7265C5.15463 14.9861 5.37693 15.1926 5.53381 15.335C5.61227 15.4063 5.67445 15.4616 5.71764 15.4997C5.73923 15.5187 5.75609 15.5334 5.76786 15.5436C5.77154 15.5468 5.77472 15.5496 5.7774 15.5519L5.78167 15.5556L5.78731 15.5604C5.78747 15.5606 5.78761 15.5607 6.30012 14.9628L5.78761 15.5607L6.30012 16L6.81263 15.5607L6.30012 14.9628C6.81263 15.5607 6.81277 15.5606 6.81293 15.5604L6.81857 15.5556L6.82363 15.5512C6.82614 15.549 6.82906 15.5465 6.83238 15.5436C6.84415 15.5334 6.861 15.5187 6.8826 15.4997C6.92579 15.4616 6.98797 15.4063 7.06643 15.335C7.22331 15.1926 7.44561 14.9861 7.71157 14.7265C8.24253 14.2082 8.95233 13.4732 9.66433 12.6087C10.3744 11.7464 11.0997 10.7396 11.6505 9.67733C12.1978 8.62187 12.6002 7.45944 12.6002 6.30012C12.6002 2.82066 9.77958 0 6.30012 0ZM6.61136 13.5994C6.49834 13.7098 6.39394 13.8096 6.30012 13.8981C6.20629 13.8096 6.1019 13.7098 5.98888 13.5994C5.48622 13.1087 4.81788 12.4163 4.15172 11.6074C3.48365 10.7962 2.83078 9.88343 2.34798 8.95232C1.86164 8.01438 1.57503 7.10958 1.57503 6.30012C1.57503 3.69052 3.69052 1.57503 6.30012 1.57503C8.90971 1.57503 11.0252 3.69052 11.0252 6.30012C11.0252 7.10958 10.7386 8.01438 10.2523 8.95232C9.76946 9.88343 9.11659 10.7962 8.44851 11.6074C7.78236 12.4163 7.11401 13.1087 6.61136 13.5994Z" fill="#6F7070"/>
</svg>
