<svg width="18" height="18" viewBox="0 0 18 18" fill="none" xmlns="http://www.w3.org/2000/svg">
<path fill-rule="evenodd" clip-rule="evenodd" d="M7.93565 0C3.55291 0 0 3.55291 0 7.93565C0 12.3184 3.55291 15.8713 7.93565 15.8713C9.80935 15.8713 11.5314 15.2219 12.889 14.1359L16.753 18L18 16.753L14.1359 12.889C15.2219 11.5314 15.8713 9.80935 15.8713 7.93565C15.8713 3.55291 12.3184 0 7.93565 0ZM1.76348 7.93565C1.76348 4.52685 4.52685 1.76348 7.93565 1.76348C11.3444 1.76348 14.1078 4.52685 14.1078 7.93565C14.1078 11.3444 11.3444 14.1078 7.93565 14.1078C4.52685 14.1078 1.76348 11.3444 1.76348 7.93565Z" fill="#999999"/>
</svg>
