<svg width="18" height="16" viewBox="0 0 18 16" fill="none" xmlns="http://www.w3.org/2000/svg">
<path fill-rule="evenodd" clip-rule="evenodd" d="M2.57817 2.85292C2.05593 3.53476 1.76371 4.4961 1.76371 5.52628C1.76371 6.5601 2.17038 7.6156 2.85742 8.65405C3.54282 9.69002 4.47289 10.6564 5.43041 11.493C6.38456 12.3266 7.34289 13.0115 8.06476 13.4887C8.36399 13.6866 8.6211 13.8477 8.81853 13.9681C9.01597 13.8477 9.27308 13.6866 9.5723 13.4887C10.2942 13.0115 11.2525 12.3266 12.2067 11.493C13.1642 10.6564 14.0942 9.69002 14.7796 8.65405C15.4667 7.6156 15.8734 6.5601 15.8734 5.52628C15.8734 4.49452 15.5831 3.53332 15.0625 2.85222C14.561 2.19612 13.8237 1.76371 12.7869 1.76371C11.7258 1.76371 10.9266 2.2021 10.3752 2.66163C10.0989 2.89182 9.89159 3.12237 9.75517 3.2929C9.68733 3.37769 9.63817 3.44623 9.60783 3.49047C9.59269 3.51255 9.58234 3.52843 9.57679 3.53709C9.57481 3.54019 9.57345 3.54236 9.57271 3.54355L8.82167 4.79528L8.066 3.54623C8.06524 3.54503 8.06383 3.54281 8.06178 3.53963C8.05614 3.53089 8.04566 3.51492 8.03036 3.49276C7.9997 3.44834 7.95009 3.37963 7.88175 3.29465C7.7443 3.12373 7.53572 2.89277 7.25846 2.66221C6.70455 2.20158 5.90514 1.76371 4.85019 1.76371C3.81975 1.76371 3.08175 2.19544 2.57817 2.85292ZM8.81853 14.9915C8.39069 15.7626 8.39048 15.7625 8.39024 15.7624L8.38777 15.761C8.38631 15.7602 8.38438 15.7591 8.38197 15.7578C8.37715 15.7551 8.37044 15.7513 8.3619 15.7465C8.34483 15.7368 8.32043 15.7229 8.2892 15.7049C8.22674 15.669 8.1369 15.6165 8.02358 15.5485C7.79704 15.4125 7.47608 15.2139 7.09209 14.96C6.32583 14.4534 5.3 13.7211 4.26997 12.8211C3.24332 11.9241 2.18923 10.8405 1.3865 9.62722C0.585415 8.4164 0 7.02332 0 5.52628C0 4.19016 0.374674 2.82929 1.17798 1.78048C1.99993 0.707323 3.2461 0 4.85019 0C6.42978 0 7.61454 0.664447 8.38617 1.30613C8.54629 1.43929 8.68986 1.57239 8.81697 1.69987C8.94355 1.57254 9.08653 1.43966 9.24607 1.30671C10.0174 0.66392 11.2024 0 12.7869 0C14.3956 0 15.6425 0.706644 16.4638 1.78119C17.266 2.83072 17.6371 4.19174 17.6371 5.52628C17.6371 7.02332 17.0517 8.4164 16.2506 9.62722C15.4478 10.8405 14.3937 11.9241 13.3671 12.8211C12.3371 13.7211 11.3112 14.4534 10.545 14.96C10.161 15.2139 9.84003 15.4125 9.61349 15.5485C9.50017 15.6165 9.41033 15.669 9.34787 15.7049C9.31664 15.7229 9.29224 15.7368 9.27516 15.7465C9.27113 15.7487 9.26751 15.7508 9.2643 15.7526C9.26071 15.7546 9.25764 15.7563 9.2551 15.7578C9.25269 15.7591 9.25075 15.7602 9.2493 15.761L9.24683 15.7624C9.24659 15.7625 9.24637 15.7626 8.81853 14.9915ZM8.81853 14.9915L9.24637 15.7626L8.81853 16L8.39069 15.7626L8.81853 14.9915Z" fill="#202121"/>
</svg>
