<svg width="24" height="24" viewBox="0 0 24 24" fill="none" xmlns="http://www.w3.org/2000/svg">
<mask id="path-1-inside-1_270_1851" fill="white">
<path fill-rule="evenodd" clip-rule="evenodd" d="M17.4988 14.382C17.1994 14.233 15.7313 13.515 15.458 13.415C15.1847 13.316 14.9858 13.267 14.7858 13.565C14.5869 13.861 14.0151 14.531 13.8413 14.729C13.6665 14.928 13.4926 14.952 13.1942 14.804C12.8958 14.654 11.9332 14.341 10.7927 13.329C9.90544 12.541 9.30557 11.568 9.13173 11.27C8.9579 10.973 9.11264 10.812 9.26236 10.664C9.39701 10.531 9.56079 10.317 9.71051 10.144C9.86022 9.97002 9.90946 9.84602 10.0089 9.64703C10.1094 9.44903 10.0592 9.27603 9.98382 9.12703C9.90946 8.97803 9.3126 7.51503 9.06341 6.92003C8.82125 6.34103 8.57507 6.42003 8.39219 6.41003C8.21736 6.40203 8.0184 6.40003 7.81945 6.40003C7.6205 6.40003 7.29695 6.47403 7.02364 6.77203C6.74932 7.06903 5.97863 7.78803 5.97863 9.25103C5.97863 10.713 7.04775 12.126 7.19747 12.325C7.34719 12.523 9.30255 15.525 12.2979 16.812C13.0113 17.118 13.567 17.301 14.0001 17.437C14.7155 17.664 15.3666 17.632 15.8811 17.555C16.4538 17.47 17.6475 16.836 17.8967 16.142C18.1449 15.448 18.1449 14.853 18.0705 14.729C17.9962 14.605 17.7972 14.531 17.4978 14.382H17.4988ZM12.0507 21.785H12.0467C10.2676 21.7853 8.52118 21.3094 6.99048 20.407L6.62875 20.193L2.86874 21.175L3.87255 17.527L3.63642 17.153C2.64179 15.5774 2.11543 13.7538 2.11814 11.893C2.12015 6.44303 6.57549 2.00904 12.0547 2.00904C14.7074 2.00904 17.2014 3.03904 19.0764 4.90703C20.0012 5.82361 20.7342 6.9136 21.233 8.11392C21.7318 9.31425 21.9864 10.6011 21.9823 11.9C21.9803 17.35 17.5249 21.785 12.0507 21.785ZM20.5032 3.48804C19.3961 2.37896 18.0788 1.49958 16.6277 0.90084C15.1766 0.302104 13.6206 -0.00407624 12.0497 4.09775e-05C5.46417 4.09775e-05 0.102491 5.33503 0.100481 11.892C0.0974296 13.9788 0.647475 16.0294 1.69512 17.837L0 24L6.33434 22.346C8.0866 23.2961 10.0502 23.794 12.0457 23.794H12.0507C18.6363 23.794 23.9979 18.459 23.9999 11.901C24.0048 10.3383 23.6983 8.79013 23.0981 7.34606C22.4978 5.902 21.6159 4.5907 20.5032 3.48804Z"/>
</mask>
<path fill-rule="evenodd" clip-rule="evenodd" d="M17.4988 14.382C17.1994 14.233 15.7313 13.515 15.458 13.415C15.1847 13.316 14.9858 13.267 14.7858 13.565C14.5869 13.861 14.0151 14.531 13.8413 14.729C13.6665 14.928 13.4926 14.952 13.1942 14.804C12.8958 14.654 11.9332 14.341 10.7927 13.329C9.90544 12.541 9.30557 11.568 9.13173 11.27C8.9579 10.973 9.11264 10.812 9.26236 10.664C9.39701 10.531 9.56079 10.317 9.71051 10.144C9.86022 9.97002 9.90946 9.84602 10.0089 9.64703C10.1094 9.44903 10.0592 9.27603 9.98382 9.12703C9.90946 8.97803 9.3126 7.51503 9.06341 6.92003C8.82125 6.34103 8.57507 6.42003 8.39219 6.41003C8.21736 6.40203 8.0184 6.40003 7.81945 6.40003C7.6205 6.40003 7.29695 6.47403 7.02364 6.77203C6.74932 7.06903 5.97863 7.78803 5.97863 9.25103C5.97863 10.713 7.04775 12.126 7.19747 12.325C7.34719 12.523 9.30255 15.525 12.2979 16.812C13.0113 17.118 13.567 17.301 14.0001 17.437C14.7155 17.664 15.3666 17.632 15.8811 17.555C16.4538 17.47 17.6475 16.836 17.8967 16.142C18.1449 15.448 18.1449 14.853 18.0705 14.729C17.9962 14.605 17.7972 14.531 17.4978 14.382H17.4988ZM12.0507 21.785H12.0467C10.2676 21.7853 8.52118 21.3094 6.99048 20.407L6.62875 20.193L2.86874 21.175L3.87255 17.527L3.63642 17.153C2.64179 15.5774 2.11543 13.7538 2.11814 11.893C2.12015 6.44303 6.57549 2.00904 12.0547 2.00904C14.7074 2.00904 17.2014 3.03904 19.0764 4.90703C20.0012 5.82361 20.7342 6.9136 21.233 8.11392C21.7318 9.31425 21.9864 10.6011 21.9823 11.9C21.9803 17.35 17.5249 21.785 12.0507 21.785ZM20.5032 3.48804C19.3961 2.37896 18.0788 1.49958 16.6277 0.90084C15.1766 0.302104 13.6206 -0.00407624 12.0497 4.09775e-05C5.46417 4.09775e-05 0.102491 5.33503 0.100481 11.892C0.0974296 13.9788 0.647475 16.0294 1.69512 17.837L0 24L6.33434 22.346C8.0866 23.2961 10.0502 23.794 12.0457 23.794H12.0507C18.6363 23.794 23.9979 18.459 23.9999 11.901C24.0048 10.3383 23.6983 8.79013 23.0981 7.34606C22.4978 5.902 21.6159 4.5907 20.5032 3.48804Z" fill="white"/>
<path d="M17.4988 14.382V15.382L17.9443 13.4867L17.4988 14.382ZM15.458 13.415L15.8016 12.4759L15.7986 12.4748L15.458 13.415ZM14.7858 13.565L15.6158 14.1229L15.6162 14.1222L14.7858 13.565ZM13.8413 14.729L14.5925 15.389L14.5928 15.3888L13.8413 14.729ZM13.1942 14.804L12.7451 15.6975L12.7499 15.6999L13.1942 14.804ZM10.7927 13.329L10.1286 14.0767L10.129 14.077L10.7927 13.329ZM9.13173 11.27L9.99552 10.7662L9.99478 10.7649L9.13173 11.27ZM9.26236 10.664L8.55961 9.95258L8.55934 9.95285L9.26236 10.664ZM9.71051 10.144L10.4667 10.7984L10.4685 10.7963L9.71051 10.144ZM10.0089 9.64703L9.11718 9.19447L9.11447 9.1999L10.0089 9.64703ZM9.98382 9.12703L9.08903 9.57355L9.09146 9.57836L9.98382 9.12703ZM9.06341 6.92003L8.14085 7.30588L8.14104 7.30633L9.06341 6.92003ZM8.39219 6.41003L8.4468 5.41148L8.4379 5.41108L8.39219 6.41003ZM7.02364 6.77203L7.75825 7.45053L7.76062 7.44795L7.02364 6.77203ZM7.19747 12.325L6.39837 12.9262L6.39983 12.9282L7.19747 12.325ZM12.2979 16.812L11.9031 17.7308L11.9037 17.731L12.2979 16.812ZM14.0001 17.437L14.3025 16.4838L14.2997 16.4829L14.0001 17.437ZM15.8811 17.555L15.7343 16.5658L15.733 16.566L15.8811 17.555ZM17.8967 16.142L18.8379 16.48L18.8383 16.4787L17.8967 16.142ZM17.4978 14.382V13.382L17.0523 15.2773L17.4978 14.382ZM12.0467 21.785V20.785H12.0465L12.0467 21.785ZM6.99048 20.407L6.48131 21.2677L6.48265 21.2685L6.99048 20.407ZM6.62875 20.193L7.13791 19.3323L6.77925 19.1202L6.37605 19.2255L6.62875 20.193ZM2.86874 21.175L1.90458 20.9097L1.44485 22.5804L3.12143 22.1425L2.86874 21.175ZM3.87255 17.527L4.83671 17.7923L4.95387 17.3665L4.71812 16.9931L3.87255 17.527ZM3.63642 17.153L2.7908 17.6868L2.79085 17.6869L3.63642 17.153ZM2.11814 11.893L3.11814 11.8945L3.11814 11.8934L2.11814 11.893ZM19.0764 4.90703L18.3706 5.61546L18.3724 5.61729L19.0764 4.90703ZM21.9823 11.9L20.9823 11.8968L20.9823 11.8997L21.9823 11.9ZM12.0497 4.09775e-05V1.00004L12.0523 1.00004L12.0497 4.09775e-05ZM0.100481 11.892L1.10048 11.8935L1.10048 11.8923L0.100481 11.892ZM1.69512 17.837L2.65931 18.1022L2.77045 17.6981L2.56031 17.3356L1.69512 17.837ZM0 24L-0.964194 23.7348L-1.42365 25.4053L0.252645 24.9676L0 24ZM6.33434 22.346L6.811 21.4669L6.46382 21.2787L6.08169 21.3784L6.33434 22.346ZM12.0457 23.794L12.0457 24.794H12.0457V23.794ZM23.9999 11.901L22.9999 11.8979L22.9999 11.9007L23.9999 11.901ZM17.9443 13.4867C17.7898 13.4098 17.3436 13.191 16.9015 12.9787C16.49 12.7811 15.9965 12.5472 15.8016 12.4759L15.1144 14.3541C15.1116 14.3531 15.118 14.3554 15.1374 14.3635C15.1553 14.371 15.1789 14.3811 15.2084 14.3942C15.2675 14.4202 15.3424 14.4542 15.4299 14.4948C15.6045 14.5756 15.8182 14.6771 16.0357 14.7816C16.4708 14.9905 16.9084 15.2052 17.0533 15.2773L17.9443 13.4867ZM15.7986 12.4748C15.691 12.4358 15.3568 12.304 14.9793 12.3478C14.4933 12.4041 14.1629 12.6986 13.9554 13.0078L15.6162 14.1222C15.6185 14.1188 15.5872 14.1672 15.5106 14.2209C15.4245 14.2813 15.3187 14.3218 15.2096 14.3345C15.1128 14.3457 15.0482 14.3308 15.0415 14.3293C15.0383 14.3286 15.0533 14.332 15.1175 14.3552L15.7986 12.4748ZM13.9559 13.0072C13.8882 13.1079 13.7267 13.3128 13.5334 13.5466C13.35 13.7684 13.1701 13.9779 13.0898 14.0693L14.5928 15.3888C14.7561 15.2027 15.374 14.4826 15.6158 14.1229L13.9559 13.0072ZM13.09 14.069C13.092 14.0668 13.1229 14.0315 13.1857 13.993C13.255 13.9505 13.344 13.9159 13.4444 13.9038C13.6287 13.8816 13.7229 13.95 13.6385 13.9081L12.7499 15.6999C12.9639 15.806 13.2942 15.9364 13.6838 15.8894C14.1149 15.8375 14.4091 15.5978 14.5925 15.389L13.09 14.069ZM13.6433 13.9105C13.241 13.7083 12.4685 13.4791 11.4564 12.581L10.129 14.077C11.3978 15.2029 12.5505 15.5997 12.7451 15.6975L13.6433 13.9105ZM11.4567 12.5813C10.688 11.8986 10.1515 11.0336 9.99551 10.7662L8.26796 11.7739C8.45961 12.1024 9.1229 13.1835 10.1286 14.0767L11.4567 12.5813ZM9.99478 10.7649C10.0032 10.7794 10.0365 10.8412 10.0496 10.9435C10.0637 11.0534 10.0486 11.1639 10.0129 11.2599C9.98076 11.3464 9.9406 11.3975 9.93139 11.4088C9.92501 11.4167 9.92553 11.4146 9.96538 11.3752L8.55934 9.95285C8.51003 10.0016 8.26348 10.2265 8.13848 10.5624C7.97794 10.9939 8.06207 11.4221 8.26869 11.7752L9.99478 10.7649ZM9.96511 11.3755C10.1327 11.2099 10.387 10.8905 10.4667 10.7984L8.95435 9.48963C8.73458 9.74358 8.66129 9.85215 8.55961 9.95258L9.96511 11.3755ZM10.4685 10.7963C10.7184 10.5059 10.8273 10.2464 10.9034 10.0942L9.11447 9.1999C9.09062 9.24761 9.05803 9.31458 9.04511 9.34068C9.02678 9.37774 9.01538 9.39964 9.006 9.4164C8.99285 9.43988 8.98082 9.45887 8.95249 9.49179L10.4685 10.7963ZM10.9007 10.0996C11.2109 9.48818 11.014 8.94817 10.8762 8.67569L9.09146 9.57836C9.10237 9.59993 9.07704 9.55822 9.06818 9.47676C9.06342 9.43301 9.06383 9.38222 9.07342 9.32826C9.08303 9.27417 9.09975 9.22886 9.11719 9.19448L10.9007 10.0996ZM10.8786 8.6805C10.884 8.69127 10.8777 8.6787 10.8513 8.61753C10.8293 8.56653 10.8003 8.4983 10.7657 8.41579C10.6965 8.25114 10.6081 8.0379 10.5133 7.80872C10.3252 7.35376 10.1115 6.83401 9.98578 6.53373L8.14104 7.30633C8.26447 7.60104 8.47381 8.1103 8.66504 8.57284C8.8421 9.00112 9.03103 9.45729 9.08904 9.57355L10.8786 8.6805ZM9.98597 6.53418C9.82037 6.13823 9.56633 5.75118 9.13079 5.54657C8.92069 5.44786 8.72888 5.42177 8.59802 5.41419C8.53762 5.41069 8.48395 5.411 8.46068 5.41107C8.42697 5.41117 8.43485 5.41087 8.44679 5.41152L8.33759 7.40854C8.39525 7.41169 8.45083 7.41111 8.46653 7.41106C8.49268 7.41099 8.49014 7.41129 8.48232 7.41084C8.45662 7.40935 8.37578 7.40158 8.28035 7.35675C8.18305 7.31103 8.1264 7.25334 8.10457 7.22634C8.08812 7.20601 8.1049 7.21993 8.14085 7.30588L9.98597 6.53418ZM8.4379 5.41108C8.23965 5.402 8.02233 5.40003 7.81945 5.40003V7.40003C8.01447 7.40003 8.19506 7.40206 8.34648 7.40899L8.4379 5.41108ZM7.81945 5.40003C7.39349 5.40003 6.78257 5.5554 6.28666 6.09611L7.76062 7.44795C7.776 7.43117 7.78862 7.42123 7.79737 7.41528C7.80634 7.40918 7.81385 7.40553 7.81957 7.40326C7.82559 7.40086 7.82998 7.39985 7.83176 7.39952C7.83404 7.3991 7.83058 7.40003 7.81945 7.40003V5.40003ZM6.28903 6.09354C6.00856 6.39721 4.97863 7.3694 4.97863 9.25103H6.97863C6.97863 8.20666 7.49009 7.74085 7.75824 7.45052L6.28903 6.09354ZM4.97863 9.25103C4.97863 10.208 5.32245 11.0911 5.64104 11.7159C5.96687 12.3549 6.31306 12.8128 6.39837 12.9262L7.99657 11.7238C7.93216 11.6382 7.66893 11.2901 7.42278 10.8074C7.16938 10.3104 6.97863 9.75602 6.97863 9.25103H4.97863ZM6.39983 12.9282C6.39555 12.9225 6.39878 12.9267 6.42789 12.9682C6.45086 13.001 6.48285 13.0466 6.52185 13.1015C6.60026 13.2117 6.70732 13.3595 6.84116 13.535C7.10838 13.8855 7.48287 14.3472 7.95273 14.8459C8.88335 15.8336 10.2306 17.0122 11.9031 17.7308L12.6927 15.8932C9.99265 14.7331 8.20054 11.9936 7.99511 11.7219L6.39983 12.9282ZM11.9037 17.731C12.6601 18.0555 13.2509 18.2499 13.7004 18.3911L14.2997 16.4829C13.883 16.3521 13.3625 16.1805 12.6921 15.893L11.9037 17.731ZM13.6976 18.3902C14.6119 18.6803 15.4311 18.6335 16.0291 18.544L15.733 16.566C15.3021 16.6305 14.8191 16.6477 14.3025 16.4838L13.6976 18.3902ZM16.0279 18.5442C16.5012 18.4739 17.0772 18.2202 17.548 17.92C17.9942 17.6354 18.5966 17.1518 18.8379 16.48L16.9555 15.8041C16.9591 15.7941 16.9411 15.844 16.8446 15.9421C16.7537 16.0344 16.6262 16.1357 16.4725 16.2338C16.1409 16.4453 15.8336 16.5511 15.7343 16.5658L16.0279 18.5442ZM18.8383 16.4787C18.9918 16.0497 19.0718 15.6432 19.1009 15.308C19.1153 15.1415 19.1184 14.9774 19.1066 14.8265C19.0991 14.7306 19.0766 14.4623 18.9282 14.2147L17.2129 15.2433C17.1433 15.1272 17.1225 15.032 17.119 15.0162C17.1124 14.9869 17.112 14.9735 17.1127 14.9825C17.1141 14.9998 17.1156 15.051 17.1083 15.1355C17.0939 15.3023 17.0499 15.5403 16.9551 15.8053L18.8383 16.4787ZM18.9282 14.2147C18.7432 13.9063 18.4632 13.7501 18.3475 13.687C18.2341 13.6252 18.0347 13.5322 17.9433 13.4867L17.0523 15.2773C17.1348 15.3183 17.2133 15.3556 17.2692 15.3826C17.3313 15.4125 17.366 15.4298 17.3897 15.4428C17.4142 15.4561 17.4006 15.4508 17.3717 15.428C17.3406 15.4034 17.2735 15.3443 17.2129 15.2433L18.9282 14.2147ZM17.4978 15.382H17.4988V13.382H17.4978V15.382ZM12.0507 20.785H12.0467V22.785H12.0507V20.785ZM12.0465 20.785C10.4459 20.7853 8.87489 20.3571 7.49831 19.5456L6.48265 21.2685C8.16747 22.2617 10.0893 22.7854 12.0469 22.785L12.0465 20.785ZM7.49965 19.5463L7.13791 19.3323L6.11958 21.0537L6.48131 21.2677L7.49965 19.5463ZM6.37605 19.2255L2.61605 20.2075L3.12143 22.1425L6.88144 21.1606L6.37605 19.2255ZM3.8329 21.4403L4.83671 17.7923L2.90838 17.2617L1.90458 20.9097L3.8329 21.4403ZM4.71812 16.9931L4.48199 16.6191L2.79085 17.6869L3.02698 18.0609L4.71812 16.9931ZM4.48203 16.6192C3.58838 15.2035 3.1157 13.5655 3.11814 11.8945L1.11815 11.8916C1.11515 13.942 1.6952 15.9512 2.7908 17.6868L4.48203 16.6192ZM3.11814 11.8934C3.11995 7.00004 7.12312 3.00904 12.0547 3.00904V1.00904C6.02786 1.00904 1.12036 5.88602 1.11814 11.8927L3.11814 11.8934ZM12.0547 3.00904C14.4433 3.00904 16.6833 3.93447 18.3706 5.61546L19.7822 4.19861C17.7195 2.1436 14.9716 1.00904 12.0547 1.00904V3.00904ZM18.3724 5.61729C19.2033 6.4408 19.8616 7.41985 20.3095 8.49766L22.1564 7.73019C21.6067 6.40734 20.799 5.20642 19.7803 4.19677L18.3724 5.61729ZM20.3095 8.49766C20.7574 9.57546 20.986 10.7308 20.9823 11.8968L22.9823 11.9032C22.9869 10.4714 22.7061 9.05305 22.1564 7.73019L20.3095 8.49766ZM20.9823 11.8997C20.9805 16.7935 16.9768 20.785 12.0507 20.785V22.785C18.073 22.785 22.9801 17.9066 22.9823 11.9004L20.9823 11.8997ZM21.2109 2.78156C20.0103 1.57884 18.5821 0.625462 17.0091 -0.0235629L16.2463 1.82524C17.5755 2.37369 18.7818 3.17908 19.7955 4.19452L21.2109 2.78156ZM17.0091 -0.0235629C15.4362 -0.672584 13.7496 -1.00442 12.0471 -0.999956L12.0523 1.00004C13.4915 0.996265 14.9171 1.27679 16.2463 1.82524L17.0091 -0.0235629ZM12.0497 -0.999959C4.9163 -0.999959 -0.897339 4.77827 -0.899519 11.8917L1.10048 11.8923C1.10232 5.89179 6.01204 1.00004 12.0497 1.00004V-0.999959ZM-0.899518 11.8906C-0.902828 14.1541 -0.306157 16.3782 0.829927 18.3385L2.56031 17.3356C1.60111 15.6806 1.09769 13.8034 1.10048 11.8935L-0.899518 11.8906ZM0.730925 17.5718L-0.964194 23.7348L0.964194 24.2652L2.65931 18.1022L0.730925 17.5718ZM0.252645 24.9676L6.58698 23.3136L6.08169 21.3784L-0.252645 23.0324L0.252645 24.9676ZM5.85768 23.2251C7.75645 24.2547 9.88393 24.794 12.0457 24.794L12.0457 22.794C10.2165 22.794 8.41676 22.3376 6.811 21.4669L5.85768 23.2251ZM12.0457 24.794H12.0507V22.794H12.0457V24.794ZM12.0507 24.794C19.1842 24.794 24.9978 19.0157 24.9999 11.9013L22.9999 11.9007C22.9981 17.9023 18.0883 22.794 12.0507 22.794V24.794ZM24.9999 11.9041C25.0052 10.2085 24.6726 8.52884 24.0215 6.96226L22.1746 7.72987C22.7239 9.05141 23.0044 10.4681 22.9999 11.8979L24.9999 11.9041ZM24.0215 6.96226C23.3703 5.39568 22.4137 3.97346 21.2071 2.77774L19.7993 4.19833C20.8181 5.20794 21.6254 6.40831 22.1746 7.72987L24.0215 6.96226Z" fill="white" mask="url(#path-1-inside-1_270_1851)"/>
</svg>
