<svg width="28" height="25" viewBox="0 0 28 25" fill="none" xmlns="http://www.w3.org/2000/svg">
<path d="M8.13281 23.15H7.28281V24.85H8.13281V23.15ZM19.8884 24.85H20.7384V23.15H19.8884V24.85ZM8.13281 24.85H19.8884V23.15H8.13281V24.85Z" fill="#202121"/>
<path d="M26.0227 17.4799L21.4228 5.59961L17.334 17.4799C18.5688 18.3683 20.0654 18.8885 21.6783 18.8885C23.2913 18.8885 24.7879 18.3683 26.0227 17.4799Z" stroke="#202121" stroke-width="1.7" stroke-linecap="square"/>
<path d="M2.00057 17.4799L6.60056 5.59961L10.6895 17.4799C9.4546 18.3683 7.95797 18.8885 6.34501 18.8885C4.73205 18.8885 3.23542 18.3683 2.00057 17.4799Z" stroke="#202121" stroke-width="1.7" stroke-linecap="square"/>
<path d="M14.6059 1L14.6059 0.15L12.9059 0.15L12.9059 1L14.6059 1ZM12.9059 23.4889L12.9059 24.3389L14.6059 24.3389L14.6059 23.4889L12.9059 23.4889ZM12.9059 1L12.9059 23.4889L14.6059 23.4889L14.6059 1L12.9059 1Z" fill="#202121"/>
<path d="M3.5332 1.68369L2.6832 1.68369L2.6832 3.38369L3.5332 3.38369L3.5332 1.68369ZM23.9776 3.38369L24.8276 3.38369L24.8276 1.68369L23.9776 1.68369L23.9776 3.38369ZM3.5332 3.38369C3.53382 3.38369 3.53449 3.38369 3.53521 3.38369C3.53593 3.38369 3.5367 3.38369 3.53752 3.38369C3.53834 3.38369 3.53921 3.38369 3.54013 3.38369C3.54105 3.38369 3.54202 3.38369 3.54304 3.38369C3.54406 3.38369 3.54513 3.38369 3.54624 3.38369C3.54736 3.38369 3.54853 3.38369 3.54974 3.38369C3.55096 3.38369 3.55223 3.38369 3.55354 3.38369C3.55485 3.38369 3.55622 3.38369 3.55763 3.38369C3.55904 3.38369 3.5605 3.38369 3.56201 3.38369C3.56352 3.38369 3.56508 3.38369 3.56669 3.38369C3.56829 3.38369 3.56995 3.38369 3.57165 3.38369C3.57336 3.38369 3.57511 3.38369 3.57691 3.38369C3.57871 3.38369 3.58056 3.38369 3.58246 3.38369C3.58435 3.38369 3.5863 3.38369 3.58829 3.38369C3.59029 3.38369 3.59233 3.38369 3.59442 3.38369C3.59651 3.38369 3.59864 3.38369 3.60083 3.38369C3.60301 3.38369 3.60524 3.38369 3.60752 3.38369C3.6098 3.38369 3.61213 3.38369 3.61451 3.38369C3.61688 3.38369 3.6193 3.38369 3.62177 3.38369C3.62424 3.38369 3.62676 3.38369 3.62932 3.38369C3.63189 3.38369 3.6345 3.38369 3.63716 3.38369C3.63982 3.38369 3.64252 3.38369 3.64527 3.38369C3.64802 3.38369 3.65082 3.38369 3.65367 3.38369C3.65651 3.38369 3.65941 3.38369 3.66234 3.38369C3.66528 3.38369 3.66827 3.38369 3.6713 3.38369C3.67433 3.38369 3.67741 3.38369 3.68053 3.38369C3.68366 3.38369 3.68683 3.38369 3.69004 3.38369C3.69326 3.38369 3.69652 3.38369 3.69983 3.38369C3.70314 3.38369 3.70649 3.38369 3.70989 3.38369C3.71329 3.38369 3.71674 3.38369 3.72023 3.38369C3.72372 3.38369 3.72726 3.38369 3.73084 3.38369C3.73442 3.38369 3.73805 3.38369 3.74172 3.38369C3.7454 3.38369 3.74912 3.38369 3.75288 3.38369C3.75664 3.38369 3.76045 3.38369 3.76431 3.38369C3.76816 3.38369 3.77206 3.38369 3.776 3.38369C3.77995 3.38369 3.78394 3.38369 3.78797 3.38369C3.792 3.38369 3.79608 3.38369 3.80021 3.38369C3.80433 3.38369 3.8085 3.38369 3.81271 3.38369C3.81692 3.38369 3.82118 3.38369 3.82548 3.38369C3.82978 3.38369 3.83412 3.38369 3.83851 3.38369C3.8429 3.38369 3.84733 3.38369 3.85181 3.38369C3.85629 3.38369 3.86081 3.38369 3.86538 3.38369C3.86994 3.38369 3.87455 3.38369 3.8792 3.38369C3.88385 3.38369 3.88855 3.38369 3.89329 3.38369C3.89803 3.38369 3.90281 3.38369 3.90764 3.38369C3.91247 3.38369 3.91734 3.38369 3.92225 3.38369C3.92717 3.38369 3.93212 3.38369 3.93712 3.38369C3.94212 3.38369 3.94717 3.38369 3.95225 3.38369C3.95734 3.38369 3.96247 3.38369 3.96764 3.38369C3.97281 3.38369 3.97803 3.38369 3.98328 3.38369C3.98854 3.38369 3.99384 3.38369 3.99918 3.38369C4.00453 3.38369 4.00991 3.38369 4.01534 3.38369C4.02076 3.38369 4.02623 3.38369 4.03175 3.38369C4.03726 3.38369 4.04281 3.38369 4.04841 3.38369C4.05401 3.38369 4.05964 3.38369 4.06532 3.38369C4.071 3.38369 4.07673 3.38369 4.08249 3.38369C4.08825 3.38369 4.09406 3.38369 4.09991 3.38369C4.10575 3.38369 4.11164 3.38369 4.11757 3.38369C4.1235 3.38369 4.12948 3.38369 4.13549 3.38369C4.1415 3.38369 4.14756 3.38369 4.15365 3.38369C4.15975 3.38369 4.16589 3.38369 4.17206 3.38369C4.17824 3.38369 4.18446 3.38369 4.19072 3.38369C4.19698 3.38369 4.20328 3.38369 4.20962 3.38369C4.21596 3.38369 4.22235 3.38369 4.22877 3.38369C4.23519 3.38369 4.24166 3.38369 4.24816 3.38369C4.25466 3.38369 4.26121 3.38369 4.26779 3.38369C4.27438 3.38369 4.281 3.38369 4.28767 3.38369C4.29433 3.38369 4.30104 3.38369 4.30778 3.38369C4.31453 3.38369 4.32131 3.38369 4.32814 3.38369C4.33496 3.38369 4.34183 3.38369 4.34873 3.38369C4.35564 3.38369 4.36258 3.38369 4.36957 3.38369C4.37655 3.38369 4.38357 3.38369 4.39064 3.38369C4.3977 3.38369 4.4048 3.38369 4.41194 3.38369C4.41909 3.38369 4.42627 3.38369 4.43349 3.38369C4.44071 3.38369 4.44796 3.38369 4.45526 3.38369C4.46256 3.38369 4.4699 3.38369 4.47727 3.38369C4.48465 3.38369 4.49206 3.38369 4.49952 3.38369C4.50697 3.38369 4.51446 3.38369 4.52199 3.38369C4.52952 3.38369 4.53709 3.38369 4.5447 3.38369C4.55231 3.38369 4.55995 3.38369 4.56764 3.38369C4.57532 3.38369 4.58304 3.38369 4.5908 3.38369C4.59856 3.38369 4.60636 3.38369 4.6142 3.38369C4.62203 3.38369 4.62991 3.38369 4.63782 3.38369C4.64573 3.38369 4.65368 3.38369 4.66167 3.38369C4.66965 3.38369 4.67768 3.38369 4.68574 3.38369C4.6938 3.38369 4.7019 3.38369 4.71004 3.38369C4.71818 3.38369 4.72635 3.38369 4.73456 3.38369C4.74278 3.38369 4.75103 3.38369 4.75931 3.38369C4.7676 3.38369 4.77592 3.38369 4.78428 3.38369C4.79264 3.38369 4.80104 3.38369 4.80947 3.38369C4.8179 3.38369 4.82637 3.38369 4.83488 3.38369C4.84339 3.38369 4.85193 3.38369 4.86051 3.38369C4.86909 3.38369 4.87771 3.38369 4.88636 3.38369C4.89501 3.38369 4.9037 3.38369 4.91243 3.38369C4.92115 3.38369 4.92991 3.38369 4.93871 3.38369C4.94751 3.38369 4.95634 3.38369 4.96521 3.38369C4.97408 3.38369 4.98298 3.38369 4.99192 3.38369C5.00086 3.38369 5.00984 3.38369 5.01885 3.38369C5.02786 3.38369 5.03691 3.38369 5.04599 3.38369C5.05508 3.38369 5.06419 3.38369 5.07335 3.38369C5.0825 3.38369 5.09169 3.38369 5.10091 3.38369C5.11014 3.38369 5.1194 3.38369 5.12869 3.38369C5.13798 3.38369 5.14731 3.38369 5.15668 3.38369C5.16604 3.38369 5.17544 3.38369 5.18487 3.38369C5.1943 3.38369 5.20377 3.38369 5.21327 3.38369C5.22278 3.38369 5.23231 3.38369 5.24188 3.38369C5.25145 3.38369 5.26106 3.38369 5.2707 3.38369C5.28034 3.38369 5.29001 3.38369 5.29972 3.38369C5.30943 3.38369 5.31917 3.38369 5.32895 3.38369C5.33872 3.38369 5.34853 3.38369 5.35838 3.38369C5.36822 3.38369 5.3781 3.38369 5.38801 3.38369C5.39792 3.38369 5.40787 3.38369 5.41784 3.38369C5.42782 3.38369 5.43783 3.38369 5.44788 3.38369C5.45792 3.38369 5.468 3.38369 5.47811 3.38369C5.48823 3.38369 5.49837 3.38369 5.50855 3.38369C5.51873 3.38369 5.52894 3.38369 5.53918 3.38369C5.54942 3.38369 5.5597 3.38369 5.57001 3.38369C5.58032 3.38369 5.59066 3.38369 5.60104 3.38369C5.61141 3.38369 5.62182 3.38369 5.63226 3.38369C5.6427 3.38369 5.65317 3.38369 5.66367 3.38369C5.67418 3.38369 5.68471 3.38369 5.69528 3.38369C5.70585 3.38369 5.71645 3.38369 5.72709 3.38369C5.73772 3.38369 5.74838 3.38369 5.75908 3.38369C5.76978 3.38369 5.78051 3.38369 5.79127 3.38369C5.80203 3.38369 5.81282 3.38369 5.82364 3.38369C5.83447 3.38369 5.84532 3.38369 5.85621 3.38369C5.86709 3.38369 5.87801 3.38369 5.88896 3.38369C5.89991 3.38369 5.91089 3.38369 5.9219 3.38369C5.93291 3.38369 5.94396 3.38369 5.95503 3.38369C5.9661 3.38369 5.97721 3.38369 5.98834 3.38369C5.99948 3.38369 6.01065 3.38369 6.02184 3.38369C6.03304 3.38369 6.04427 3.38369 6.05553 3.38369C6.06678 3.38369 6.07807 3.38369 6.08939 3.38369C6.10071 3.38369 6.11206 3.38369 6.12344 3.38369C6.13482 3.38369 6.14623 3.38369 6.15767 3.38369C6.16911 3.38369 6.18058 3.38369 6.19208 3.38369C6.20358 3.38369 6.21511 3.38369 6.22667 3.38369C6.23823 3.38369 6.24982 3.38369 6.26143 3.38369C6.27305 3.38369 6.2847 3.38369 6.29638 3.38369C6.30806 3.38369 6.31977 3.38369 6.3315 3.38369C6.34324 3.38369 6.35501 3.38369 6.3668 3.38369C6.3786 3.38369 6.39042 3.38369 6.40227 3.38369C6.41413 3.38369 6.42601 3.38369 6.43792 3.38369C6.44983 3.38369 6.46177 3.38369 6.47374 3.38369C6.48571 3.38369 6.49771 3.38369 6.50974 3.38369C6.52176 3.38369 6.53382 3.38369 6.5459 3.38369C6.55798 3.38369 6.5701 3.38369 6.58224 3.38369C6.59438 3.38369 6.60655 3.38369 6.61874 3.38369C6.63094 3.38369 6.64316 3.38369 6.65542 3.38369C6.66767 3.38369 6.67995 3.38369 6.69226 3.38369C6.70457 3.38369 6.7169 3.38369 6.72927 3.38369C6.74163 3.38369 6.75402 3.38369 6.76644 3.38369C6.77886 3.38369 6.79131 3.38369 6.80378 3.38369C6.81626 3.38369 6.82876 3.38369 6.84129 3.38369C6.85382 3.38369 6.86637 3.38369 6.87896 3.38369C6.89154 3.38369 6.90415 3.38369 6.91679 3.38369C6.92943 3.38369 6.94209 3.38369 6.95478 3.38369C6.96747 3.38369 6.98019 3.38369 6.99294 3.38369C7.00568 3.38369 7.01845 3.38369 7.03125 3.38369C7.04405 3.38369 7.05687 3.38369 7.06972 3.38369C7.08257 3.38369 7.09545 3.38369 7.10835 3.38369C7.12126 3.38369 7.13419 3.38369 7.14714 3.38369C7.1601 3.38369 7.17308 3.38369 7.18609 3.38369C7.19909 3.38369 7.21213 3.38369 7.22519 3.38369C7.23825 3.38369 7.25133 3.38369 7.26444 3.38369C7.27755 3.38369 7.29069 3.38369 7.30385 3.38369C7.31701 3.38369 7.3302 3.38369 7.34341 3.38369C7.35663 3.38369 7.36986 3.38369 7.38313 3.38369C7.39639 3.38369 7.40968 3.38369 7.42299 3.38369C7.4363 3.38369 7.44964 3.38369 7.46301 3.38369C7.47637 3.38369 7.48976 3.38369 7.50317 3.38369C7.51658 3.38369 7.53002 3.38369 7.54348 3.38369C7.55694 3.38369 7.57043 3.38369 7.58394 3.38369C7.59745 3.38369 7.61099 3.38369 7.62455 3.38369C7.63811 3.38369 7.65169 3.38369 7.6653 3.38369C7.67891 3.38369 7.69254 3.38369 7.7062 3.38369C7.71986 3.38369 7.73354 3.38369 7.74724 3.38369C7.76094 3.38369 7.77467 3.38369 7.78842 3.38369C7.80218 3.38369 7.81595 3.38369 7.82975 3.38369C7.84355 3.38369 7.85737 3.38369 7.87122 3.38369C7.88507 3.38369 7.89894 3.38369 7.91283 3.38369C7.92672 3.38369 7.94064 3.38369 7.95458 3.38369C7.96851 3.38369 7.98248 3.38369 7.99646 3.38369C8.01045 3.38369 8.02446 3.38369 8.03849 3.38369C8.05252 3.38369 8.06657 3.38369 8.08065 3.38369C8.09472 3.38369 8.10882 3.38369 8.12294 3.38369C8.13707 3.38369 8.15121 3.38369 8.16538 3.38369C8.17954 3.38369 8.19373 3.38369 8.20794 3.38369C8.22215 3.38369 8.23639 3.38369 8.25064 3.38369C8.2649 3.38369 8.27918 3.38369 8.29347 3.38369C8.30777 3.38369 8.32209 3.38369 8.33644 3.38369C8.35078 3.38369 8.36515 3.38369 8.37953 3.38369C8.39392 3.38369 8.40833 3.38369 8.42276 3.38369C8.43719 3.38369 8.45164 3.38369 8.46611 3.38369C8.48058 3.38369 8.49507 3.38369 8.50959 3.38369C8.5241 3.38369 8.53864 3.38369 8.5532 3.38369C8.56775 3.38369 8.58233 3.38369 8.59693 3.38369C8.61153 3.38369 8.62615 3.38369 8.64079 3.38369C8.65543 3.38369 8.67009 3.38369 8.68477 3.38369C8.69946 3.38369 8.71416 3.38369 8.72888 3.38369C8.7436 3.38369 8.75835 3.38369 8.77311 3.38369C8.78787 3.38369 8.80266 3.38369 8.81746 3.38369C8.83227 3.38369 8.84709 3.38369 8.86194 3.38369C8.87678 3.38369 8.89164 3.38369 8.90653 3.38369C8.92141 3.38369 8.93631 3.38369 8.95124 3.38369C8.96616 3.38369 8.98111 3.38369 8.99607 3.38369C9.01103 3.38369 9.02601 3.38369 9.04102 3.38369C9.05602 3.38369 9.07104 3.38369 9.08608 3.38369C9.10112 3.38369 9.11618 3.38369 9.13126 3.38369C9.14634 3.38369 9.16143 3.38369 9.17655 3.38369C9.19167 3.38369 9.2068 3.38369 9.22196 3.38369C9.23711 3.38369 9.25229 3.38369 9.26748 3.38369C9.28267 3.38369 9.29788 3.38369 9.31311 3.38369C9.32834 3.38369 9.34359 3.38369 9.35885 3.38369C9.37412 3.38369 9.3894 3.38369 9.40471 3.38369C9.42001 3.38369 9.43533 3.38369 9.45067 3.38369C9.46601 3.38369 9.48137 3.38369 9.49674 3.38369C9.51212 3.38369 9.52751 3.38369 9.54292 3.38369C9.55833 3.38369 9.57376 3.38369 9.5892 3.38369C9.60465 3.38369 9.62011 3.38369 9.63559 3.38369C9.65108 3.38369 9.66657 3.38369 9.68209 3.38369C9.69761 3.38369 9.71314 3.38369 9.72869 3.38369C9.74424 3.38369 9.75981 3.38369 9.77539 3.38369C9.79098 3.38369 9.80658 3.38369 9.8222 3.38369C9.83782 3.38369 9.85345 3.38369 9.8691 3.38369C9.88476 3.38369 9.90042 3.38369 9.91611 3.38369C9.9318 3.38369 9.9475 3.38369 9.96322 3.38369C9.97894 3.38369 9.99467 3.38369 10.0104 3.38369C10.0262 3.38369 10.0419 3.38369 10.0577 3.38369C10.0735 3.38369 10.0893 3.38369 10.1051 3.38369C10.1209 3.38369 10.1368 3.38369 10.1526 3.38369C10.1685 3.38369 10.1843 3.38369 10.2002 3.38369C10.2161 3.38369 10.232 3.38369 10.2479 3.38369C10.2638 3.38369 10.2797 3.38369 10.2957 3.38369C10.3116 3.38369 10.3276 3.38369 10.3435 3.38369C10.3595 3.38369 10.3755 3.38369 10.3915 3.38369C10.4075 3.38369 10.4235 3.38369 10.4396 3.38369C10.4556 3.38369 10.4716 3.38369 10.4877 3.38369C10.5038 3.38369 10.5198 3.38369 10.5359 3.38369C10.552 3.38369 10.5681 3.38369 10.5842 3.38369C10.6004 3.38369 10.6165 3.38369 10.6327 3.38369C10.6488 3.38369 10.665 3.38369 10.6811 3.38369C10.6973 3.38369 10.7135 3.38369 10.7297 3.38369C10.7459 3.38369 10.7622 3.38369 10.7784 3.38369C10.7946 3.38369 10.8109 3.38369 10.8271 3.38369C10.8434 3.38369 10.8597 3.38369 10.876 3.38369C10.8922 3.38369 10.9086 3.38369 10.9249 3.38369C10.9412 3.38369 10.9575 3.38369 10.9739 3.38369C10.9902 3.38369 11.0066 3.38369 11.0229 3.38369C11.0393 3.38369 11.0557 3.38369 11.0721 3.38369C11.0885 3.38369 11.1049 3.38369 11.1213 3.38369C11.1377 3.38369 11.1542 3.38369 11.1706 3.38369C11.1871 3.38369 11.2035 3.38369 11.22 3.38369C11.2365 3.38369 11.253 3.38369 11.2694 3.38369C11.2859 3.38369 11.3025 3.38369 11.319 3.38369C11.3355 3.38369 11.352 3.38369 11.3686 3.38369C11.3851 3.38369 11.4017 3.38369 11.4183 3.38369C11.4348 3.38369 11.4514 3.38369 11.468 3.38369C11.4846 3.38369 11.5012 3.38369 11.5178 3.38369C11.5345 3.38369 11.5511 3.38369 11.5677 3.38369C11.5844 3.38369 11.601 3.38369 11.6177 3.38369C11.6344 3.38369 11.651 3.38369 11.6677 3.38369C11.6844 3.38369 11.7011 3.38369 11.7178 3.38369C11.7345 3.38369 11.7512 3.38369 11.768 3.38369C11.7847 3.38369 11.8015 3.38369 11.8182 3.38369C11.835 3.38369 11.8517 3.38369 11.8685 3.38369C11.8853 3.38369 11.9021 3.38369 11.9189 3.38369C11.9357 3.38369 11.9525 3.38369 11.9693 3.38369C11.9861 3.38369 12.0029 3.38369 12.0198 3.38369C12.0366 3.38369 12.0534 3.38369 12.0703 3.38369C12.0872 3.38369 12.104 3.38369 12.1209 3.38369C12.1378 3.38369 12.1547 3.38369 12.1716 3.38369C12.1885 3.38369 12.2054 3.38369 12.2223 3.38369C12.2392 3.38369 12.2561 3.38369 12.2731 3.38369C12.29 3.38369 12.307 3.38369 12.3239 3.38369C12.3409 3.38369 12.3578 3.38369 12.3748 3.38369C12.3918 3.38369 12.4088 3.38369 12.4258 3.38369C12.4427 3.38369 12.4597 3.38369 12.4768 3.38369C12.4938 3.38369 12.5108 3.38369 12.5278 3.38369C12.5448 3.38369 12.5619 3.38369 12.5789 3.38369C12.596 3.38369 12.613 3.38369 12.6301 3.38369C12.6471 3.38369 12.6642 3.38369 12.6813 3.38369C12.6984 3.38369 12.7155 3.38369 12.7325 3.38369C12.7496 3.38369 12.7667 3.38369 12.7839 3.38369C12.801 3.38369 12.8181 3.38369 12.8352 3.38369C12.8523 3.38369 12.8695 3.38369 12.8866 3.38369C12.9038 3.38369 12.9209 3.38369 12.9381 3.38369C12.9552 3.38369 12.9724 3.38369 12.9896 3.38369C13.0067 3.38369 13.0239 3.38369 13.0411 3.38369C13.0583 3.38369 13.0755 3.38369 13.0927 3.38369C13.1099 3.38369 13.1271 3.38369 13.1443 3.38369C13.1615 3.38369 13.1787 3.38369 13.196 3.38369C13.2132 3.38369 13.2304 3.38369 13.2477 3.38369C13.2649 3.38369 13.2822 3.38369 13.2994 3.38369C13.3167 3.38369 13.334 3.38369 13.3512 3.38369C13.3685 3.38369 13.3858 3.38369 13.403 3.38369C13.4203 3.38369 13.4376 3.38369 13.4549 3.38369C13.4722 3.38369 13.4895 3.38369 13.5068 3.38369C13.5241 3.38369 13.5414 3.38369 13.5587 3.38369C13.5761 3.38369 13.5934 3.38369 13.6107 3.38369C13.628 3.38369 13.6454 3.38369 13.6627 3.38369C13.6801 3.38369 13.6974 3.38369 13.7148 3.38369C13.7321 3.38369 13.7495 3.38369 13.7668 3.38369C13.7842 3.38369 13.8015 3.38369 13.8189 3.38369C13.8363 3.38369 13.8537 3.38369 13.871 3.38369C13.8884 3.38369 13.9058 3.38369 13.9232 3.38369C13.9406 3.38369 13.958 3.38369 13.9754 3.38369C13.9928 3.38369 14.0102 3.38369 14.0276 3.38369C14.045 3.38369 14.0624 3.38369 14.0798 3.38369C14.0973 3.38369 14.1147 3.38369 14.1321 3.38369C14.1495 3.38369 14.167 3.38369 14.1844 3.38369C14.2018 3.38369 14.2193 3.38369 14.2367 3.38369C14.2542 3.38369 14.2716 3.38369 14.2891 3.38369C14.3065 3.38369 14.324 3.38369 14.3414 3.38369C14.3589 3.38369 14.3763 3.38369 14.3938 3.38369C14.4113 3.38369 14.4287 3.38369 14.4462 3.38369C14.4637 3.38369 14.4811 3.38369 14.4986 3.38369C14.5161 3.38369 14.5336 3.38369 14.5511 3.38369C14.5685 3.38369 14.586 3.38369 14.6035 3.38369C14.621 3.38369 14.6385 3.38369 14.656 3.38369C14.6735 3.38369 14.691 3.38369 14.7085 3.38369C14.726 3.38369 14.7435 3.38369 14.761 3.38369C14.7785 3.38369 14.796 3.38369 14.8135 3.38369C14.831 3.38369 14.8485 3.38369 14.866 3.38369C14.8836 3.38369 14.9011 3.38369 14.9186 3.38369C14.9361 3.38369 14.9536 3.38369 14.9711 3.38369C14.9887 3.38369 15.0062 3.38369 15.0237 3.38369C15.0412 3.38369 15.0588 3.38369 15.0763 3.38369C15.0938 3.38369 15.1113 3.38369 15.1289 3.38369C15.1464 3.38369 15.1639 3.38369 15.1815 3.38369C15.199 3.38369 15.2165 3.38369 15.2341 3.38369C15.2516 3.38369 15.2691 3.38369 15.2867 3.38369C15.3042 3.38369 15.3218 3.38369 15.3393 3.38369C15.3568 3.38369 15.3744 3.38369 15.3919 3.38369C15.4094 3.38369 15.427 3.38369 15.4445 3.38369C15.4621 3.38369 15.4796 3.38369 15.4972 3.38369C15.5147 3.38369 15.5322 3.38369 15.5498 3.38369C15.5673 3.38369 15.5849 3.38369 15.6024 3.38369C15.6199 3.38369 15.6375 3.38369 15.655 3.38369C15.6726 3.38369 15.6901 3.38369 15.7077 3.38369C15.7252 3.38369 15.7427 3.38369 15.7603 3.38369C15.7778 3.38369 15.7954 3.38369 15.8129 3.38369C15.8304 3.38369 15.848 3.38369 15.8655 3.38369C15.883 3.38369 15.9006 3.38369 15.9181 3.38369C15.9357 3.38369 15.9532 3.38369 15.9707 3.38369C15.9883 3.38369 16.0058 3.38369 16.0233 3.38369C16.0409 3.38369 16.0584 3.38369 16.0759 3.38369C16.0935 3.38369 16.111 3.38369 16.1285 3.38369C16.146 3.38369 16.1636 3.38369 16.1811 3.38369C16.1986 3.38369 16.2161 3.38369 16.2336 3.38369C16.2512 3.38369 16.2687 3.38369 16.2862 3.38369C16.3037 3.38369 16.3212 3.38369 16.3387 3.38369C16.3563 3.38369 16.3738 3.38369 16.3913 3.38369C16.4088 3.38369 16.4263 3.38369 16.4438 3.38369C16.4613 3.38369 16.4788 3.38369 16.4963 3.38369C16.5138 3.38369 16.5313 3.38369 16.5488 3.38369C16.5663 3.38369 16.5838 3.38369 16.6013 3.38369C16.6187 3.38369 16.6362 3.38369 16.6537 3.38369C16.6712 3.38369 16.6887 3.38369 16.7062 3.38369C16.7236 3.38369 16.7411 3.38369 16.7586 3.38369C16.776 3.38369 16.7935 3.38369 16.811 3.38369C16.8284 3.38369 16.8459 3.38369 16.8633 3.38369C16.8808 3.38369 16.8983 3.38369 16.9157 3.38369C16.9332 3.38369 16.9506 3.38369 16.968 3.38369C16.9855 3.38369 17.0029 3.38369 17.0204 3.38369C17.0378 3.38369 17.0552 3.38369 17.0726 3.38369C17.0901 3.38369 17.1075 3.38369 17.1249 3.38369C17.1423 3.38369 17.1597 3.38369 17.1771 3.38369C17.1945 3.38369 17.212 3.38369 17.2294 3.38369C17.2467 3.38369 17.2641 3.38369 17.2815 3.38369C17.2989 3.38369 17.3163 3.38369 17.3337 3.38369C17.3511 3.38369 17.3684 3.38369 17.3858 3.38369C17.4032 3.38369 17.4205 3.38369 17.4379 3.38369C17.4553 3.38369 17.4726 3.38369 17.49 3.38369C17.5073 3.38369 17.5247 3.38369 17.542 3.38369C17.5593 3.38369 17.5767 3.38369 17.594 3.38369C17.6113 3.38369 17.6286 3.38369 17.646 3.38369C17.6633 3.38369 17.6806 3.38369 17.6979 3.38369C17.7152 3.38369 17.7325 3.38369 17.7498 3.38369C17.7671 3.38369 17.7844 3.38369 17.8016 3.38369C17.8189 3.38369 17.8362 3.38369 17.8535 3.38369C17.8707 3.38369 17.888 3.38369 17.9052 3.38369C17.9225 3.38369 17.9397 3.38369 17.957 3.38369C17.9742 3.38369 17.9915 3.38369 18.0087 3.38369C18.0259 3.38369 18.0431 3.38369 18.0604 3.38369C18.0776 3.38369 18.0948 3.38369 18.112 3.38369C18.1292 3.38369 18.1464 3.38369 18.1635 3.38369C18.1807 3.38369 18.1979 3.38369 18.2151 3.38369C18.2322 3.38369 18.2494 3.38369 18.2666 3.38369C18.2837 3.38369 18.3009 3.38369 18.318 3.38369C18.3352 3.38369 18.3523 3.38369 18.3694 3.38369C18.3865 3.38369 18.4036 3.38369 18.4208 3.38369C18.4379 3.38369 18.455 3.38369 18.4721 3.38369C18.4892 3.38369 18.5062 3.38369 18.5233 3.38369C18.5404 3.38369 18.5575 3.38369 18.5745 3.38369C18.5916 3.38369 18.6086 3.38369 18.6257 3.38369C18.6427 3.38369 18.6597 3.38369 18.6768 3.38369C18.6938 3.38369 18.7108 3.38369 18.7278 3.38369C18.7448 3.38369 18.7618 3.38369 18.7788 3.38369C18.7958 3.38369 18.8128 3.38369 18.8297 3.38369C18.8467 3.38369 18.8637 3.38369 18.8806 3.38369C18.8976 3.38369 18.9145 3.38369 18.9315 3.38369C18.9484 3.38369 18.9653 3.38369 18.9822 3.38369C18.9992 3.38369 19.0161 3.38369 19.0329 3.38369C19.0498 3.38369 19.0667 3.38369 19.0836 3.38369C19.1005 3.38369 19.1173 3.38369 19.1342 3.38369C19.1511 3.38369 19.1679 3.38369 19.1847 3.38369C19.2016 3.38369 19.2184 3.38369 19.2352 3.38369C19.252 3.38369 19.2688 3.38369 19.2856 3.38369C19.3024 3.38369 19.3192 3.38369 19.336 3.38369C19.3527 3.38369 19.3695 3.38369 19.3863 3.38369C19.403 3.38369 19.4197 3.38369 19.4365 3.38369C19.4532 3.38369 19.4699 3.38369 19.4866 3.38369C19.5033 3.38369 19.52 3.38369 19.5367 3.38369C19.5534 3.38369 19.5701 3.38369 19.5867 3.38369C19.6034 3.38369 19.62 3.38369 19.6367 3.38369C19.6533 3.38369 19.6699 3.38369 19.6866 3.38369C19.7032 3.38369 19.7198 3.38369 19.7364 3.38369C19.753 3.38369 19.7695 3.38369 19.7861 3.38369C19.8027 3.38369 19.8192 3.38369 19.8358 3.38369C19.8523 3.38369 19.8689 3.38369 19.8854 3.38369C19.9019 3.38369 19.9184 3.38369 19.9349 3.38369C19.9514 3.38369 19.9679 3.38369 19.9843 3.38369C20.0008 3.38369 20.0173 3.38369 20.0337 3.38369C20.0502 3.38369 20.0666 3.38369 20.083 3.38369C20.0994 3.38369 20.1158 3.38369 20.1322 3.38369C20.1486 3.38369 20.165 3.38369 20.1814 3.38369C20.1977 3.38369 20.2141 3.38369 20.2304 3.38369C20.2468 3.38369 20.2631 3.38369 20.2794 3.38369C20.2957 3.38369 20.312 3.38369 20.3283 3.38369C20.3446 3.38369 20.3609 3.38369 20.3771 3.38369C20.3934 3.38369 20.4096 3.38369 20.4258 3.38369C20.4421 3.38369 20.4583 3.38369 20.4745 3.38369C20.4907 3.38369 20.5069 3.38369 20.5231 3.38369C20.5392 3.38369 20.5554 3.38369 20.5715 3.38369C20.5877 3.38369 20.6038 3.38369 20.6199 3.38369C20.636 3.38369 20.6522 3.38369 20.6682 3.38369C20.6843 3.38369 20.7004 3.38369 20.7165 3.38369C20.7325 3.38369 20.7486 3.38369 20.7646 3.38369C20.7806 3.38369 20.7966 3.38369 20.8126 3.38369C20.8286 3.38369 20.8446 3.38369 20.8606 3.38369C20.8765 3.38369 20.8925 3.38369 20.9084 3.38369C20.9244 3.38369 20.9403 3.38369 20.9562 3.38369C20.9721 3.38369 20.988 3.38369 21.0039 3.38369C21.0197 3.38369 21.0356 3.38369 21.0514 3.38369C21.0673 3.38369 21.0831 3.38369 21.0989 3.38369C21.1147 3.38369 21.1305 3.38369 21.1463 3.38369C21.1621 3.38369 21.1779 3.38369 21.1936 3.38369C21.2093 3.38369 21.2251 3.38369 21.2408 3.38369C21.2565 3.38369 21.2722 3.38369 21.2879 3.38369C21.3036 3.38369 21.3192 3.38369 21.3349 3.38369C21.3505 3.38369 21.3661 3.38369 21.3818 3.38369C21.3974 3.38369 21.413 3.38369 21.4286 3.38369C21.4441 3.38369 21.4597 3.38369 21.4752 3.38369C21.4908 3.38369 21.5063 3.38369 21.5218 3.38369C21.5373 3.38369 21.5528 3.38369 21.5683 3.38369C21.5838 3.38369 21.5992 3.38369 21.6147 3.38369C21.6301 3.38369 21.6455 3.38369 21.6609 3.38369C21.6764 3.38369 21.6917 3.38369 21.7071 3.38369C21.7225 3.38369 21.7378 3.38369 21.7532 3.38369C21.7685 3.38369 21.7838 3.38369 21.7991 3.38369C21.8144 3.38369 21.8297 3.38369 21.845 3.38369C21.8602 3.38369 21.8755 3.38369 21.8907 3.38369C21.9059 3.38369 21.9211 3.38369 21.9363 3.38369C21.9515 3.38369 21.9666 3.38369 21.9818 3.38369C21.9969 3.38369 22.0121 3.38369 22.0272 3.38369C22.0423 3.38369 22.0574 3.38369 22.0725 3.38369C22.0875 3.38369 22.1026 3.38369 22.1176 3.38369C22.1327 3.38369 22.1477 3.38369 22.1627 3.38369C22.1777 3.38369 22.1926 3.38369 22.2076 3.38369C22.2226 3.38369 22.2375 3.38369 22.2524 3.38369C22.2673 3.38369 22.2822 3.38369 22.2971 3.38369C22.312 3.38369 22.3268 3.38369 22.3417 3.38369C22.3565 3.38369 22.3713 3.38369 22.3861 3.38369C22.4009 3.38369 22.4157 3.38369 22.4305 3.38369C22.4452 3.38369 22.46 3.38369 22.4747 3.38369C22.4894 3.38369 22.5041 3.38369 22.5188 3.38369C22.5334 3.38369 22.5481 3.38369 22.5627 3.38369C22.5774 3.38369 22.592 3.38369 22.6066 3.38369C22.6212 3.38369 22.6357 3.38369 22.6503 3.38369C22.6648 3.38369 22.6794 3.38369 22.6939 3.38369C22.7084 3.38369 22.7229 3.38369 22.7373 3.38369C22.7518 3.38369 22.7663 3.38369 22.7807 3.38369C22.7951 3.38369 22.8095 3.38369 22.8239 3.38369C22.8383 3.38369 22.8526 3.38369 22.867 3.38369C22.8813 3.38369 22.8956 3.38369 22.9099 3.38369C22.9242 3.38369 22.9385 3.38369 22.9527 3.38369C22.967 3.38369 22.9812 3.38369 22.9954 3.38369C23.0096 3.38369 23.0238 3.38369 23.0379 3.38369C23.0521 3.38369 23.0662 3.38369 23.0804 3.38369C23.0945 3.38369 23.1086 3.38369 23.1226 3.38369C23.1367 3.38369 23.1508 3.38369 23.1648 3.38369C23.1788 3.38369 23.1928 3.38369 23.2068 3.38369C23.2208 3.38369 23.2347 3.38369 23.2486 3.38369C23.2626 3.38369 23.2765 3.38369 23.2904 3.38369C23.3043 3.38369 23.3181 3.38369 23.332 3.38369C23.3458 3.38369 23.3596 3.38369 23.3734 3.38369C23.3872 3.38369 23.401 3.38369 23.4147 3.38369C23.4285 3.38369 23.4422 3.38369 23.4559 3.38369C23.4696 3.38369 23.4832 3.38369 23.4969 3.38369C23.5105 3.38369 23.5242 3.38369 23.5378 3.38369C23.5514 3.38369 23.565 3.38369 23.5785 3.38369C23.5921 3.38369 23.6056 3.38369 23.6191 3.38369C23.6326 3.38369 23.6461 3.38369 23.6595 3.38369C23.673 3.38369 23.6864 3.38369 23.6998 3.38369C23.7132 3.38369 23.7266 3.38369 23.74 3.38369C23.7533 3.38369 23.7666 3.38369 23.78 3.38369C23.7933 3.38369 23.8065 3.38369 23.8198 3.38369C23.8331 3.38369 23.8463 3.38369 23.8595 3.38369C23.8727 3.38369 23.8859 3.38369 23.899 3.38369C23.9122 3.38369 23.9253 3.38369 23.9384 3.38369C23.9515 3.38369 23.9646 3.38369 23.9776 3.38369L23.9776 1.68369C23.9646 1.68369 23.9515 1.68369 23.9384 1.68369C23.9253 1.68369 23.9122 1.68369 23.899 1.68369C23.8859 1.68369 23.8727 1.68369 23.8595 1.68369C23.8463 1.68369 23.8331 1.68369 23.8198 1.68369C23.8065 1.68369 23.7933 1.68369 23.78 1.68369C23.7666 1.68369 23.7533 1.68369 23.74 1.68369C23.7266 1.68369 23.7132 1.68369 23.6998 1.68369C23.6864 1.68369 23.673 1.68369 23.6595 1.68369C23.6461 1.68369 23.6326 1.68369 23.6191 1.68369C23.6056 1.68369 23.5921 1.68369 23.5785 1.68369C23.565 1.68369 23.5514 1.68369 23.5378 1.68369C23.5242 1.68369 23.5105 1.68369 23.4969 1.68369C23.4832 1.68369 23.4696 1.68369 23.4559 1.68369C23.4422 1.68369 23.4285 1.68369 23.4147 1.68369C23.401 1.68369 23.3872 1.68369 23.3734 1.68369C23.3596 1.68369 23.3458 1.68369 23.332 1.68369C23.3181 1.68369 23.3043 1.68369 23.2904 1.68369C23.2765 1.68369 23.2626 1.68369 23.2486 1.68369C23.2347 1.68369 23.2208 1.68369 23.2068 1.68369C23.1928 1.68369 23.1788 1.68369 23.1648 1.68369C23.1508 1.68369 23.1367 1.68369 23.1226 1.68369C23.1086 1.68369 23.0945 1.68369 23.0804 1.68369C23.0662 1.68369 23.0521 1.68369 23.0379 1.68369C23.0238 1.68369 23.0096 1.68369 22.9954 1.68369C22.9812 1.68369 22.967 1.68369 22.9527 1.68369C22.9385 1.68369 22.9242 1.68369 22.9099 1.68369C22.8956 1.68369 22.8813 1.68369 22.867 1.68369C22.8526 1.68369 22.8383 1.68369 22.8239 1.68369C22.8095 1.68369 22.7951 1.68369 22.7807 1.68369C22.7663 1.68369 22.7518 1.68369 22.7373 1.68369C22.7229 1.68369 22.7084 1.68369 22.6939 1.68369C22.6794 1.68369 22.6648 1.68369 22.6503 1.68369C22.6357 1.68369 22.6212 1.68369 22.6066 1.68369C22.592 1.68369 22.5774 1.68369 22.5627 1.68369C22.5481 1.68369 22.5334 1.68369 22.5188 1.68369C22.5041 1.68369 22.4894 1.68369 22.4747 1.68369C22.46 1.68369 22.4452 1.68369 22.4305 1.68369C22.4157 1.68369 22.4009 1.68369 22.3861 1.68369C22.3713 1.68369 22.3565 1.68369 22.3417 1.68369C22.3268 1.68369 22.312 1.68369 22.2971 1.68369C22.2822 1.68369 22.2673 1.68369 22.2524 1.68369C22.2375 1.68369 22.2226 1.68369 22.2076 1.68369C22.1926 1.68369 22.1777 1.68369 22.1627 1.68369C22.1477 1.68369 22.1327 1.68369 22.1176 1.68369C22.1026 1.68369 22.0875 1.68369 22.0725 1.68369C22.0574 1.68369 22.0423 1.68369 22.0272 1.68369C22.0121 1.68369 21.9969 1.68369 21.9818 1.68369C21.9666 1.68369 21.9515 1.68369 21.9363 1.68369C21.9211 1.68369 21.9059 1.68369 21.8907 1.68369C21.8755 1.68369 21.8602 1.68369 21.845 1.68369C21.8297 1.68369 21.8144 1.68369 21.7991 1.68369C21.7838 1.68369 21.7685 1.68369 21.7532 1.68369C21.7378 1.68369 21.7225 1.68369 21.7071 1.68369C21.6917 1.68369 21.6764 1.68369 21.6609 1.68369C21.6455 1.68369 21.6301 1.68369 21.6147 1.68369C21.5992 1.68369 21.5838 1.68369 21.5683 1.68369C21.5528 1.68369 21.5373 1.68369 21.5218 1.68369C21.5063 1.68369 21.4908 1.68369 21.4752 1.68369C21.4597 1.68369 21.4441 1.68369 21.4286 1.68369C21.413 1.68369 21.3974 1.68369 21.3818 1.68369C21.3661 1.68369 21.3505 1.68369 21.3349 1.68369C21.3192 1.68369 21.3036 1.68369 21.2879 1.68369C21.2722 1.68369 21.2565 1.68369 21.2408 1.68369C21.2251 1.68369 21.2093 1.68369 21.1936 1.68369C21.1779 1.68369 21.1621 1.68369 21.1463 1.68369C21.1305 1.68369 21.1147 1.68369 21.0989 1.68369C21.0831 1.68369 21.0673 1.68369 21.0514 1.68369C21.0356 1.68369 21.0197 1.68369 21.0039 1.68369C20.988 1.68369 20.9721 1.68369 20.9562 1.68369C20.9403 1.68369 20.9244 1.68369 20.9084 1.68369C20.8925 1.68369 20.8765 1.68369 20.8606 1.68369C20.8446 1.68369 20.8286 1.68369 20.8126 1.68369C20.7966 1.68369 20.7806 1.68369 20.7646 1.68369C20.7486 1.68369 20.7325 1.68369 20.7165 1.68369C20.7004 1.68369 20.6843 1.68369 20.6682 1.68369C20.6522 1.68369 20.636 1.68369 20.6199 1.68369C20.6038 1.68369 20.5877 1.68369 20.5715 1.68369C20.5554 1.68369 20.5392 1.68369 20.5231 1.68369C20.5069 1.68369 20.4907 1.68369 20.4745 1.68369C20.4583 1.68369 20.4421 1.68369 20.4258 1.68369C20.4096 1.68369 20.3934 1.68369 20.3771 1.68369C20.3609 1.68369 20.3446 1.68369 20.3283 1.68369C20.312 1.68369 20.2957 1.68369 20.2794 1.68369C20.2631 1.68369 20.2468 1.68369 20.2304 1.68369C20.2141 1.68369 20.1977 1.68369 20.1814 1.68369C20.165 1.68369 20.1486 1.68369 20.1322 1.68369C20.1158 1.68369 20.0994 1.68369 20.083 1.68369C20.0666 1.68369 20.0502 1.68369 20.0337 1.68369C20.0173 1.68369 20.0008 1.68369 19.9843 1.68369C19.9679 1.68369 19.9514 1.68369 19.9349 1.68369C19.9184 1.68369 19.9019 1.68369 19.8854 1.68369C19.8689 1.68369 19.8523 1.68369 19.8358 1.68369C19.8192 1.68369 19.8027 1.68369 19.7861 1.68369C19.7695 1.68369 19.753 1.68369 19.7364 1.68369C19.7198 1.68369 19.7032 1.68369 19.6866 1.68369C19.6699 1.68369 19.6533 1.68369 19.6367 1.68369C19.62 1.68369 19.6034 1.68369 19.5867 1.68369C19.5701 1.68369 19.5534 1.68369 19.5367 1.68369C19.52 1.68369 19.5033 1.68369 19.4866 1.68369C19.4699 1.68369 19.4532 1.68369 19.4365 1.68369C19.4197 1.68369 19.403 1.68369 19.3863 1.68369C19.3695 1.68369 19.3527 1.68369 19.336 1.68369C19.3192 1.68369 19.3024 1.68369 19.2856 1.68369C19.2688 1.68369 19.252 1.68369 19.2352 1.68369C19.2184 1.68369 19.2016 1.68369 19.1847 1.68369C19.1679 1.68369 19.1511 1.68369 19.1342 1.68369C19.1173 1.68369 19.1005 1.68369 19.0836 1.68369C19.0667 1.68369 19.0498 1.68369 19.0329 1.68369C19.0161 1.68369 18.9992 1.68369 18.9822 1.68369C18.9653 1.68369 18.9484 1.68369 18.9315 1.68369C18.9145 1.68369 18.8976 1.68369 18.8806 1.68369C18.8637 1.68369 18.8467 1.68369 18.8298 1.68369C18.8128 1.68369 18.7958 1.68369 18.7788 1.68369C18.7618 1.68369 18.7448 1.68369 18.7278 1.68369C18.7108 1.68369 18.6938 1.68369 18.6768 1.68369C18.6597 1.68369 18.6427 1.68369 18.6257 1.68369C18.6086 1.68369 18.5916 1.68369 18.5745 1.68369C18.5575 1.68369 18.5404 1.68369 18.5233 1.68369C18.5062 1.68369 18.4892 1.68369 18.4721 1.68369C18.455 1.68369 18.4379 1.68369 18.4208 1.68369C18.4036 1.68369 18.3865 1.68369 18.3694 1.68369C18.3523 1.68369 18.3352 1.68369 18.318 1.68369C18.3009 1.68369 18.2837 1.68369 18.2666 1.68369C18.2494 1.68369 18.2322 1.68369 18.2151 1.68369C18.1979 1.68369 18.1807 1.68369 18.1635 1.68369C18.1464 1.68369 18.1292 1.68369 18.112 1.68369C18.0948 1.68369 18.0776 1.68369 18.0604 1.68369C18.0431 1.68369 18.0259 1.68369 18.0087 1.68369C17.9915 1.68369 17.9742 1.68369 17.957 1.68369C17.9397 1.68369 17.9225 1.68369 17.9052 1.68369C17.888 1.68369 17.8707 1.68369 17.8535 1.68369C17.8362 1.68369 17.8189 1.68369 17.8016 1.68369C17.7844 1.68369 17.7671 1.68369 17.7498 1.68369C17.7325 1.68369 17.7152 1.68369 17.6979 1.68369C17.6806 1.68369 17.6633 1.68369 17.646 1.68369C17.6286 1.68369 17.6113 1.68369 17.594 1.68369C17.5767 1.68369 17.5593 1.68369 17.542 1.68369C17.5247 1.68369 17.5073 1.68369 17.49 1.68369C17.4726 1.68369 17.4553 1.68369 17.4379 1.68369C17.4205 1.68369 17.4032 1.68369 17.3858 1.68369C17.3684 1.68369 17.3511 1.68369 17.3337 1.68369C17.3163 1.68369 17.2989 1.68369 17.2815 1.68369C17.2641 1.68369 17.2467 1.68369 17.2294 1.68369C17.212 1.68369 17.1945 1.68369 17.1771 1.68369C17.1597 1.68369 17.1423 1.68369 17.1249 1.68369C17.1075 1.68369 17.0901 1.68369 17.0726 1.68369C17.0552 1.68369 17.0378 1.68369 17.0204 1.68369C17.0029 1.68369 16.9855 1.68369 16.968 1.68369C16.9506 1.68369 16.9332 1.68369 16.9157 1.68369C16.8983 1.68369 16.8808 1.68369 16.8633 1.68369C16.8459 1.68369 16.8284 1.68369 16.811 1.68369C16.7935 1.68369 16.776 1.68369 16.7586 1.68369C16.7411 1.68369 16.7236 1.68369 16.7062 1.68369C16.6887 1.68369 16.6712 1.68369 16.6537 1.68369C16.6362 1.68369 16.6187 1.68369 16.6013 1.68369C16.5838 1.68369 16.5663 1.68369 16.5488 1.68369C16.5313 1.68369 16.5138 1.68369 16.4963 1.68369C16.4788 1.68369 16.4613 1.68369 16.4438 1.68369C16.4263 1.68369 16.4088 1.68369 16.3913 1.68369C16.3738 1.68369 16.3563 1.68369 16.3387 1.68369C16.3212 1.68369 16.3037 1.68369 16.2862 1.68369C16.2687 1.68369 16.2512 1.68369 16.2336 1.68369C16.2161 1.68369 16.1986 1.68369 16.1811 1.68369C16.1636 1.68369 16.146 1.68369 16.1285 1.68369C16.111 1.68369 16.0935 1.68369 16.0759 1.68369C16.0584 1.68369 16.0409 1.68369 16.0233 1.68369C16.0058 1.68369 15.9883 1.68369 15.9707 1.68369C15.9532 1.68369 15.9357 1.68369 15.9181 1.68369C15.9006 1.68369 15.883 1.68369 15.8655 1.68369C15.848 1.68369 15.8304 1.68369 15.8129 1.68369C15.7954 1.68369 15.7778 1.68369 15.7603 1.68369C15.7427 1.68369 15.7252 1.68369 15.7077 1.68369C15.6901 1.68369 15.6726 1.68369 15.655 1.68369C15.6375 1.68369 15.6199 1.68369 15.6024 1.68369C15.5849 1.68369 15.5673 1.68369 15.5498 1.68369C15.5322 1.68369 15.5147 1.68369 15.4972 1.68369C15.4796 1.68369 15.4621 1.68369 15.4445 1.68369C15.427 1.68369 15.4094 1.68369 15.3919 1.68369C15.3744 1.68369 15.3568 1.68369 15.3393 1.68369C15.3218 1.68369 15.3042 1.68369 15.2867 1.68369C15.2691 1.68369 15.2516 1.68369 15.2341 1.68369C15.2165 1.68369 15.199 1.68369 15.1815 1.68369C15.1639 1.68369 15.1464 1.68369 15.1289 1.68369C15.1113 1.68369 15.0938 1.68369 15.0763 1.68369C15.0588 1.68369 15.0412 1.68369 15.0237 1.68369C15.0062 1.68369 14.9887 1.68369 14.9711 1.68369C14.9536 1.68369 14.9361 1.68369 14.9186 1.68369C14.9011 1.68369 14.8836 1.68369 14.866 1.68369C14.8485 1.68369 14.831 1.68369 14.8135 1.68369C14.796 1.68369 14.7785 1.68369 14.761 1.68369C14.7435 1.68369 14.726 1.68369 14.7085 1.68369C14.691 1.68369 14.6735 1.68369 14.656 1.68369C14.6385 1.68369 14.621 1.68369 14.6035 1.68369C14.586 1.68369 14.5685 1.68369 14.5511 1.68369C14.5336 1.68369 14.5161 1.68369 14.4986 1.68369C14.4811 1.68369 14.4637 1.68369 14.4462 1.68369C14.4287 1.68369 14.4113 1.68369 14.3938 1.68369C14.3763 1.68369 14.3589 1.68369 14.3414 1.68369C14.324 1.68369 14.3065 1.68369 14.2891 1.68369C14.2716 1.68369 14.2542 1.68369 14.2367 1.68369C14.2193 1.68369 14.2018 1.68369 14.1844 1.68369C14.167 1.68369 14.1495 1.68369 14.1321 1.68369C14.1147 1.68369 14.0973 1.68369 14.0798 1.68369C14.0624 1.68369 14.045 1.68369 14.0276 1.68369C14.0102 1.68369 13.9928 1.68369 13.9754 1.68369C13.958 1.68369 13.9406 1.68369 13.9232 1.68369C13.9058 1.68369 13.8884 1.68369 13.871 1.68369C13.8537 1.68369 13.8363 1.68369 13.8189 1.68369C13.8015 1.68369 13.7842 1.68369 13.7668 1.68369C13.7495 1.68369 13.7321 1.68369 13.7148 1.68369C13.6974 1.68369 13.6801 1.68369 13.6627 1.68369C13.6454 1.68369 13.628 1.68369 13.6107 1.68369C13.5934 1.68369 13.5761 1.68369 13.5587 1.68369C13.5414 1.68369 13.5241 1.68369 13.5068 1.68369C13.4895 1.68369 13.4722 1.68369 13.4549 1.68369C13.4376 1.68369 13.4203 1.68369 13.403 1.68369C13.3858 1.68369 13.3685 1.68369 13.3512 1.68369C13.334 1.68369 13.3167 1.68369 13.2994 1.68369C13.2822 1.68369 13.2649 1.68369 13.2477 1.68369C13.2304 1.68369 13.2132 1.68369 13.196 1.68369C13.1787 1.68369 13.1615 1.68369 13.1443 1.68369C13.1271 1.68369 13.1099 1.68369 13.0927 1.68369C13.0755 1.68369 13.0583 1.68369 13.0411 1.68369C13.0239 1.68369 13.0067 1.68369 12.9896 1.68369C12.9724 1.68369 12.9552 1.68369 12.9381 1.68369C12.9209 1.68369 12.9038 1.68369 12.8866 1.68369C12.8695 1.68369 12.8523 1.68369 12.8352 1.68369C12.8181 1.68369 12.801 1.68369 12.7839 1.68369C12.7667 1.68369 12.7496 1.68369 12.7325 1.68369C12.7155 1.68369 12.6984 1.68369 12.6813 1.68369C12.6642 1.68369 12.6471 1.68369 12.6301 1.68369C12.613 1.68369 12.596 1.68369 12.5789 1.68369C12.5619 1.68369 12.5448 1.68369 12.5278 1.68369C12.5108 1.68369 12.4938 1.68369 12.4768 1.68369C12.4597 1.68369 12.4427 1.68369 12.4258 1.68369C12.4088 1.68369 12.3918 1.68369 12.3748 1.68369C12.3578 1.68369 12.3409 1.68369 12.3239 1.68369C12.307 1.68369 12.29 1.68369 12.2731 1.68369C12.2561 1.68369 12.2392 1.68369 12.2223 1.68369C12.2054 1.68369 12.1885 1.68369 12.1716 1.68369C12.1547 1.68369 12.1378 1.68369 12.1209 1.68369C12.104 1.68369 12.0872 1.68369 12.0703 1.68369C12.0534 1.68369 12.0366 1.68369 12.0198 1.68369C12.0029 1.68369 11.9861 1.68369 11.9693 1.68369C11.9525 1.68369 11.9357 1.68369 11.9189 1.68369C11.9021 1.68369 11.8853 1.68369 11.8685 1.68369C11.8517 1.68369 11.835 1.68369 11.8182 1.68369C11.8015 1.68369 11.7847 1.68369 11.768 1.68369C11.7512 1.68369 11.7345 1.68369 11.7178 1.68369C11.7011 1.68369 11.6844 1.68369 11.6677 1.68369C11.651 1.68369 11.6344 1.68369 11.6177 1.68369C11.601 1.68369 11.5844 1.68369 11.5677 1.68369C11.5511 1.68369 11.5345 1.68369 11.5178 1.68369C11.5012 1.68369 11.4846 1.68369 11.468 1.68369C11.4514 1.68369 11.4348 1.68369 11.4183 1.68369C11.4017 1.68369 11.3851 1.68369 11.3686 1.68369C11.352 1.68369 11.3355 1.68369 11.319 1.68369C11.3025 1.68369 11.2859 1.68369 11.2694 1.68369C11.253 1.68369 11.2365 1.68369 11.22 1.68369C11.2035 1.68369 11.1871 1.68369 11.1706 1.68369C11.1542 1.68369 11.1377 1.68369 11.1213 1.68369C11.1049 1.68369 11.0885 1.68369 11.0721 1.68369C11.0557 1.68369 11.0393 1.68369 11.0229 1.68369C11.0066 1.68369 10.9902 1.68369 10.9739 1.68369C10.9575 1.68369 10.9412 1.68369 10.9249 1.68369C10.9086 1.68369 10.8922 1.68369 10.876 1.68369C10.8597 1.68369 10.8434 1.68369 10.8271 1.68369C10.8109 1.68369 10.7946 1.68369 10.7784 1.68369C10.7622 1.68369 10.7459 1.68369 10.7297 1.68369C10.7135 1.68369 10.6973 1.68369 10.6811 1.68369C10.665 1.68369 10.6488 1.68369 10.6327 1.68369C10.6165 1.68369 10.6004 1.68369 10.5842 1.68369C10.5681 1.68369 10.552 1.68369 10.5359 1.68369C10.5198 1.68369 10.5038 1.68369 10.4877 1.68369C10.4716 1.68369 10.4556 1.68369 10.4396 1.68369C10.4235 1.68369 10.4075 1.68369 10.3915 1.68369C10.3755 1.68369 10.3595 1.68369 10.3435 1.68369C10.3276 1.68369 10.3116 1.68369 10.2957 1.68369C10.2797 1.68369 10.2638 1.68369 10.2479 1.68369C10.232 1.68369 10.2161 1.68369 10.2002 1.68369C10.1843 1.68369 10.1685 1.68369 10.1526 1.68369C10.1368 1.68369 10.1209 1.68369 10.1051 1.68369C10.0893 1.68369 10.0735 1.68369 10.0577 1.68369C10.0419 1.68369 10.0262 1.68369 10.0104 1.68369C9.99467 1.68369 9.97894 1.68369 9.96322 1.68369C9.9475 1.68369 9.9318 1.68369 9.91611 1.68369C9.90043 1.68369 9.88476 1.68369 9.8691 1.68369C9.85345 1.68369 9.83782 1.68369 9.8222 1.68369C9.80658 1.68369 9.79098 1.68369 9.77539 1.68369C9.75981 1.68369 9.74424 1.68369 9.72869 1.68369C9.71314 1.68369 9.69761 1.68369 9.68209 1.68369C9.66657 1.68369 9.65108 1.68369 9.63559 1.68369C9.62011 1.68369 9.60465 1.68369 9.5892 1.68369C9.57376 1.68369 9.55833 1.68369 9.54292 1.68369C9.52751 1.68369 9.51212 1.68369 9.49674 1.68369C9.48137 1.68369 9.46601 1.68369 9.45067 1.68369C9.43533 1.68369 9.42001 1.68369 9.40471 1.68369C9.3894 1.68369 9.37412 1.68369 9.35885 1.68369C9.34359 1.68369 9.32834 1.68369 9.31311 1.68369C9.29788 1.68369 9.28267 1.68369 9.26748 1.68369C9.25229 1.68369 9.23711 1.68369 9.22196 1.68369C9.2068 1.68369 9.19167 1.68369 9.17655 1.68369C9.16143 1.68369 9.14634 1.68369 9.13126 1.68369C9.11618 1.68369 9.10112 1.68369 9.08608 1.68369C9.07104 1.68369 9.05602 1.68369 9.04102 1.68369C9.02601 1.68369 9.01103 1.68369 8.99607 1.68369C8.98111 1.68369 8.96616 1.68369 8.95124 1.68369C8.93632 1.68369 8.92141 1.68369 8.90653 1.68369C8.89164 1.68369 8.87678 1.68369 8.86194 1.68369C8.84709 1.68369 8.83227 1.68369 8.81746 1.68369C8.80266 1.68369 8.78787 1.68369 8.77311 1.68369C8.75835 1.68369 8.7436 1.68369 8.72888 1.68369C8.71416 1.68369 8.69946 1.68369 8.68477 1.68369C8.67009 1.68369 8.65543 1.68369 8.64079 1.68369C8.62615 1.68369 8.61153 1.68369 8.59693 1.68369C8.58233 1.68369 8.56775 1.68369 8.5532 1.68369C8.53864 1.68369 8.5241 1.68369 8.50959 1.68369C8.49507 1.68369 8.48058 1.68369 8.46611 1.68369C8.45164 1.68369 8.43719 1.68369 8.42276 1.68369C8.40833 1.68369 8.39392 1.68369 8.37953 1.68369C8.36515 1.68369 8.35078 1.68369 8.33644 1.68369C8.32209 1.68369 8.30777 1.68369 8.29347 1.68369C8.27918 1.68369 8.2649 1.68369 8.25064 1.68369C8.23639 1.68369 8.22215 1.68369 8.20794 1.68369C8.19373 1.68369 8.17954 1.68369 8.16538 1.68369C8.15121 1.68369 8.13707 1.68369 8.12294 1.68369C8.10882 1.68369 8.09472 1.68369 8.08065 1.68369C8.06657 1.68369 8.05252 1.68369 8.03849 1.68369C8.02446 1.68369 8.01045 1.68369 7.99646 1.68369C7.98248 1.68369 7.96851 1.68369 7.95458 1.68369C7.94064 1.68369 7.92672 1.68369 7.91283 1.68369C7.89894 1.68369 7.88507 1.68369 7.87122 1.68369C7.85737 1.68369 7.84355 1.68369 7.82975 1.68369C7.81595 1.68369 7.80218 1.68369 7.78843 1.68369C7.77467 1.68369 7.76094 1.68369 7.74724 1.68369C7.73354 1.68369 7.71986 1.68369 7.7062 1.68369C7.69254 1.68369 7.67891 1.68369 7.6653 1.68369C7.65169 1.68369 7.63811 1.68369 7.62455 1.68369C7.61099 1.68369 7.59745 1.68369 7.58394 1.68369C7.57043 1.68369 7.55694 1.68369 7.54348 1.68369C7.53002 1.68369 7.51658 1.68369 7.50317 1.68369C7.48976 1.68369 7.47637 1.68369 7.46301 1.68369C7.44964 1.68369 7.4363 1.68369 7.42299 1.68369C7.40968 1.68369 7.39639 1.68369 7.38313 1.68369C7.36986 1.68369 7.35663 1.68369 7.34341 1.68369C7.3302 1.68369 7.31701 1.68369 7.30385 1.68369C7.29069 1.68369 7.27755 1.68369 7.26444 1.68369C7.25133 1.68369 7.23825 1.68369 7.22519 1.68369C7.21213 1.68369 7.19909 1.68369 7.18609 1.68369C7.17308 1.68369 7.1601 1.68369 7.14714 1.68369C7.13419 1.68369 7.12126 1.68369 7.10835 1.68369C7.09545 1.68369 7.08257 1.68369 7.06972 1.68369C7.05687 1.68369 7.04405 1.68369 7.03125 1.68369C7.01845 1.68369 7.00568 1.68369 6.99294 1.68369C6.98019 1.68369 6.96747 1.68369 6.95478 1.68369C6.94209 1.68369 6.92943 1.68369 6.91679 1.68369C6.90415 1.68369 6.89154 1.68369 6.87896 1.68369C6.86637 1.68369 6.85382 1.68369 6.84129 1.68369C6.82876 1.68369 6.81626 1.68369 6.80378 1.68369C6.79131 1.68369 6.77886 1.68369 6.76644 1.68369C6.75402 1.68369 6.74163 1.68369 6.72927 1.68369C6.7169 1.68369 6.70457 1.68369 6.69226 1.68369C6.67995 1.68369 6.66767 1.68369 6.65542 1.68369C6.64316 1.68369 6.63094 1.68369 6.61874 1.68369C6.60655 1.68369 6.59438 1.68369 6.58224 1.68369C6.5701 1.68369 6.55799 1.68369 6.5459 1.68369C6.53382 1.68369 6.52176 1.68369 6.50974 1.68369C6.49771 1.68369 6.48571 1.68369 6.47374 1.68369C6.46177 1.68369 6.44983 1.68369 6.43792 1.68369C6.42601 1.68369 6.41413 1.68369 6.40227 1.68369C6.39042 1.68369 6.3786 1.68369 6.3668 1.68369C6.35501 1.68369 6.34324 1.68369 6.3315 1.68369C6.31977 1.68369 6.30806 1.68369 6.29638 1.68369C6.2847 1.68369 6.27305 1.68369 6.26144 1.68369C6.24982 1.68369 6.23823 1.68369 6.22667 1.68369C6.21511 1.68369 6.20358 1.68369 6.19208 1.68369C6.18058 1.68369 6.16911 1.68369 6.15767 1.68369C6.14623 1.68369 6.13482 1.68369 6.12344 1.68369C6.11206 1.68369 6.10071 1.68369 6.08939 1.68369C6.07807 1.68369 6.06678 1.68369 6.05553 1.68369C6.04427 1.68369 6.03304 1.68369 6.02184 1.68369C6.01065 1.68369 5.99948 1.68369 5.98834 1.68369C5.97721 1.68369 5.9661 1.68369 5.95503 1.68369C5.94396 1.68369 5.93291 1.68369 5.9219 1.68369C5.91089 1.68369 5.89991 1.68369 5.88896 1.68369C5.87801 1.68369 5.86709 1.68369 5.85621 1.68369C5.84532 1.68369 5.83447 1.68369 5.82364 1.68369C5.81282 1.68369 5.80203 1.68369 5.79127 1.68369C5.78051 1.68369 5.76978 1.68369 5.75908 1.68369C5.74838 1.68369 5.73772 1.68369 5.72709 1.68369C5.71645 1.68369 5.70585 1.68369 5.69528 1.68369C5.68471 1.68369 5.67418 1.68369 5.66367 1.68369C5.65317 1.68369 5.6427 1.68369 5.63226 1.68369C5.62182 1.68369 5.61141 1.68369 5.60104 1.68369C5.59066 1.68369 5.58032 1.68369 5.57001 1.68369C5.5597 1.68369 5.54942 1.68369 5.53918 1.68369C5.52894 1.68369 5.51873 1.68369 5.50855 1.68369C5.49837 1.68369 5.48823 1.68369 5.47811 1.68369C5.468 1.68369 5.45792 1.68369 5.44788 1.68369C5.43783 1.68369 5.42782 1.68369 5.41784 1.68369C5.40787 1.68369 5.39792 1.68369 5.38801 1.68369C5.3781 1.68369 5.36822 1.68369 5.35838 1.68369C5.34853 1.68369 5.33872 1.68369 5.32895 1.68369C5.31917 1.68369 5.30943 1.68369 5.29972 1.68369C5.29001 1.68369 5.28034 1.68369 5.2707 1.68369C5.26106 1.68369 5.25146 1.68369 5.24188 1.68369C5.23231 1.68369 5.22278 1.68369 5.21327 1.68369C5.20377 1.68369 5.1943 1.68369 5.18487 1.68369C5.17544 1.68369 5.16604 1.68369 5.15668 1.68369C5.14731 1.68369 5.13798 1.68369 5.12869 1.68369C5.1194 1.68369 5.11014 1.68369 5.10091 1.68369C5.09169 1.68369 5.0825 1.68369 5.07335 1.68369C5.06419 1.68369 5.05508 1.68369 5.04599 1.68369C5.03691 1.68369 5.02786 1.68369 5.01885 1.68369C5.00984 1.68369 5.00086 1.68369 4.99192 1.68369C4.98298 1.68369 4.97408 1.68369 4.96521 1.68369C4.95634 1.68369 4.94751 1.68369 4.93871 1.68369C4.92991 1.68369 4.92115 1.68369 4.91243 1.68369C4.9037 1.68369 4.89501 1.68369 4.88636 1.68369C4.87771 1.68369 4.86909 1.68369 4.86051 1.68369C4.85193 1.68369 4.84339 1.68369 4.83488 1.68369C4.82637 1.68369 4.8179 1.68369 4.80947 1.68369C4.80104 1.68369 4.79264 1.68369 4.78428 1.68369C4.77592 1.68369 4.7676 1.68369 4.75931 1.68369C4.75103 1.68369 4.74278 1.68369 4.73456 1.68369C4.72635 1.68369 4.71818 1.68369 4.71004 1.68369C4.7019 1.68369 4.6938 1.68369 4.68574 1.68369C4.67768 1.68369 4.66965 1.68369 4.66167 1.68369C4.65368 1.68369 4.64573 1.68369 4.63782 1.68369C4.62991 1.68369 4.62203 1.68369 4.6142 1.68369C4.60636 1.68369 4.59856 1.68369 4.5908 1.68369C4.58304 1.68369 4.57532 1.68369 4.56764 1.68369C4.55995 1.68369 4.55231 1.68369 4.5447 1.68369C4.53709 1.68369 4.52952 1.68369 4.52199 1.68369C4.51446 1.68369 4.50697 1.68369 4.49952 1.68369C4.49206 1.68369 4.48465 1.68369 4.47727 1.68369C4.4699 1.68369 4.46256 1.68369 4.45526 1.68369C4.44796 1.68369 4.44071 1.68369 4.43349 1.68369C4.42627 1.68369 4.41909 1.68369 4.41194 1.68369C4.4048 1.68369 4.3977 1.68369 4.39064 1.68369C4.38357 1.68369 4.37655 1.68369 4.36957 1.68369C4.36258 1.68369 4.35564 1.68369 4.34873 1.68369C4.34183 1.68369 4.33496 1.68369 4.32814 1.68369C4.32131 1.68369 4.31453 1.68369 4.30778 1.68369C4.30104 1.68369 4.29433 1.68369 4.28767 1.68369C4.281 1.68369 4.27438 1.68369 4.26779 1.68369C4.26121 1.68369 4.25466 1.68369 4.24816 1.68369C4.24166 1.68369 4.23519 1.68369 4.22877 1.68369C4.22235 1.68369 4.21597 1.68369 4.20962 1.68369C4.20328 1.68369 4.19698 1.68369 4.19072 1.68369C4.18446 1.68369 4.17824 1.68369 4.17206 1.68369C4.16589 1.68369 4.15975 1.68369 4.15365 1.68369C4.14756 1.68369 4.1415 1.68369 4.13549 1.68369C4.12948 1.68369 4.1235 1.68369 4.11757 1.68369C4.11164 1.68369 4.10575 1.68369 4.09991 1.68369C4.09406 1.68369 4.08825 1.68369 4.08249 1.68369C4.07673 1.68369 4.071 1.68369 4.06532 1.68369C4.05964 1.68369 4.05401 1.68369 4.04841 1.68369C4.04281 1.68369 4.03726 1.68369 4.03175 1.68369C4.02623 1.68369 4.02076 1.68369 4.01534 1.68369C4.00991 1.68369 4.00453 1.68369 3.99918 1.68369C3.99384 1.68369 3.98854 1.68369 3.98328 1.68369C3.97803 1.68369 3.97281 1.68369 3.96764 1.68369C3.96247 1.68369 3.95734 1.68369 3.95225 1.68369C3.94717 1.68369 3.94212 1.68369 3.93712 1.68369C3.93212 1.68369 3.92717 1.68369 3.92225 1.68369C3.91734 1.68369 3.91247 1.68369 3.90764 1.68369C3.90281 1.68369 3.89803 1.68369 3.89329 1.68369C3.88855 1.68369 3.88386 1.68369 3.8792 1.68369C3.87455 1.68369 3.86994 1.68369 3.86538 1.68369C3.86081 1.68369 3.85629 1.68369 3.85181 1.68369C3.84733 1.68369 3.8429 1.68369 3.83851 1.68369C3.83412 1.68369 3.82978 1.68369 3.82548 1.68369C3.82118 1.68369 3.81692 1.68369 3.81271 1.68369C3.8085 1.68369 3.80433 1.68369 3.80021 1.68369C3.79608 1.68369 3.792 1.68369 3.78797 1.68369C3.78394 1.68369 3.77995 1.68369 3.776 1.68369C3.77206 1.68369 3.76816 1.68369 3.76431 1.68369C3.76045 1.68369 3.75664 1.68369 3.75288 1.68369C3.74912 1.68369 3.7454 1.68369 3.74172 1.68369C3.73805 1.68369 3.73442 1.68369 3.73084 1.68369C3.72726 1.68369 3.72372 1.68369 3.72023 1.68369C3.71674 1.68369 3.71329 1.68369 3.70989 1.68369C3.70649 1.68369 3.70314 1.68369 3.69983 1.68369C3.69652 1.68369 3.69326 1.68369 3.69004 1.68369C3.68683 1.68369 3.68366 1.68369 3.68053 1.68369C3.67741 1.68369 3.67433 1.68369 3.6713 1.68369C3.66827 1.68369 3.66528 1.68369 3.66234 1.68369C3.65941 1.68369 3.65651 1.68369 3.65367 1.68369C3.65082 1.68369 3.64802 1.68369 3.64527 1.68369C3.64252 1.68369 3.63982 1.68369 3.63716 1.68369C3.6345 1.68369 3.63189 1.68369 3.62932 1.68369C3.62676 1.68369 3.62424 1.68369 3.62177 1.68369C3.6193 1.68369 3.61688 1.68369 3.61451 1.68369C3.61213 1.68369 3.6098 1.68369 3.60752 1.68369C3.60524 1.68369 3.60301 1.68369 3.60083 1.68369C3.59864 1.68369 3.59651 1.68369 3.59442 1.68369C3.59233 1.68369 3.59029 1.68369 3.58829 1.68369C3.5863 1.68369 3.58435 1.68369 3.58246 1.68369C3.58056 1.68369 3.57871 1.68369 3.57691 1.68369C3.57511 1.68369 3.57336 1.68369 3.57165 1.68369C3.56995 1.68369 3.56829 1.68369 3.56669 1.68369C3.56508 1.68369 3.56352 1.68369 3.56201 1.68369C3.5605 1.68369 3.55904 1.68369 3.55763 1.68369C3.55622 1.68369 3.55485 1.68369 3.55354 1.68369C3.55223 1.68369 3.55096 1.68369 3.54974 1.68369C3.54853 1.68369 3.54736 1.68369 3.54624 1.68369C3.54513 1.68369 3.54406 1.68369 3.54304 1.68369C3.54202 1.68369 3.54105 1.68369 3.54013 1.68369C3.53921 1.68369 3.53834 1.68369 3.53752 1.68369C3.5367 1.68369 3.53593 1.68369 3.53521 1.68369C3.53449 1.68369 3.53382 1.68369 3.5332 1.68369L3.5332 3.38369Z" fill="#202121"/>
</svg>
