<svg width="16" height="15" viewBox="0 0 16 15" fill="none" xmlns="http://www.w3.org/2000/svg">
<path d="M7.65807 12.8207L7.65346 12.8183L7.63753 12.8098C7.62398 12.8026 7.60461 12.7922 7.57982 12.7787C7.53025 12.7517 7.45893 12.7124 7.36898 12.6613C7.18916 12.5593 6.93439 12.4104 6.62958 12.22C6.02134 11.8401 5.20705 11.2908 4.38943 10.6158C3.5745 9.9431 2.73777 9.13039 2.10058 8.22041C1.46469 7.3123 1 6.26749 1 5.14471C1 4.14262 1.29741 3.12196 1.93506 2.33536C2.58751 1.53049 3.5767 1 4.85 1C6.10385 1 7.04429 1.93772 7.6568 2.41899C7.7839 2.51886 7.89786 2.61867 7.99876 2.71429C8.09924 2.61879 8.21273 2.51913 8.33937 2.41942C8.95166 1.93732 9.89227 1 11.15 1C12.427 1 13.4167 1.52998 14.0687 2.33589C14.7054 3.12304 15 4.1438 15 5.14471C15 6.26749 14.5353 7.3123 13.8994 8.22041C13.2622 9.13039 12.4255 9.9431 11.6106 10.6158C10.793 11.2908 9.97866 11.8401 9.37042 12.22C9.06561 12.4104 8.81084 12.5593 8.63102 12.6613C8.54107 12.7124 8.46975 12.7517 8.42018 12.7787C8.39539 12.7922 8.37602 12.8026 8.36247 12.8098L8.35384 12.8144L8.34654 12.8183L8.34193 12.8207L8.33998 12.8218L8 13L7.66003 12.8218L7.65807 12.8207Z" stroke="#202121" stroke-width="2"/>
</svg>
