<svg width="30" height="37" viewBox="0 0 30 37" fill="none" xmlns="http://www.w3.org/2000/svg">
<g clip-path="url(#clip0_994_28097)">
<path d="M22.1637 0H2.91043C2.35452 7.48446e-05 1.8214 0.216159 1.42833 0.600725C1.03527 0.985291 0.814453 1.50684 0.814453 2.05066V34.9493C0.814453 35.4932 1.03527 36.0147 1.42833 36.3993C1.8214 36.7838 2.35452 36.9999 2.91043 37H27.482C27.7573 37 28.0299 36.947 28.2842 36.8439C28.5386 36.7408 28.7696 36.5898 28.9643 36.3994C29.159 36.209 29.3134 35.9829 29.4187 35.7341C29.5241 35.4853 29.5783 35.2186 29.5783 34.9493V7.25324L22.1637 0Z" fill="#E7E6E9"/>
<path d="M22.1641 0V5.20258C22.1641 5.7464 22.3849 6.26795 22.7779 6.65252C23.171 7.03708 23.7041 7.25317 24.26 7.25324H29.5786L22.1641 0Z" fill="#D3D3D3"/>
<path d="M9.16287 24.4127C8.7154 24.4127 8.28813 24.2038 8.05011 23.82C7.64332 23.1664 7.83777 22.0857 9.60399 21.0141C10.3733 20.5475 11.2447 20.137 12.2181 19.7825C12.8174 18.6095 13.4298 17.2342 14.0963 15.7334C14.1982 15.504 14.3016 15.2715 14.4064 15.036C14.1025 14.5353 13.8799 14.0442 13.7385 13.5628C13.4948 12.7299 13.517 11.9541 13.8014 11.382C14.0533 10.874 14.4973 10.5785 14.9604 10.6084C15.411 10.6366 15.7861 10.8585 16.016 11.2307C16.2217 11.5635 16.3025 11.9944 16.256 12.512C16.2099 13.024 16.0388 13.6096 15.748 14.2531C15.6407 14.4898 15.5349 14.7245 15.4306 14.9572C15.702 15.3475 16.0008 15.7188 16.325 16.0684C17.3059 17.1355 18.1391 17.8825 18.8093 18.4035C19.7189 18.3208 20.4232 18.2949 20.7884 18.2867C21.5962 18.2689 22.25 18.6008 22.456 19.1334C22.617 19.5485 22.4742 19.9944 22.0737 20.3258C21.7137 20.6238 20.9774 20.8027 19.5144 19.9631C19.1774 19.7674 18.852 19.5531 18.5398 19.3213C17.9201 19.3845 17.2193 19.4743 16.4756 19.6019C15.1499 19.8276 13.9425 20.1288 12.8615 20.4985C11.9383 22.25 11.0093 23.5623 9.89914 24.2115C9.67679 24.3423 9.42236 24.4119 9.16287 24.4127ZM11.5491 21.0102C11.0435 21.2315 10.5533 21.4851 10.0818 21.7694C9.31838 22.2325 9.00448 22.6191 8.87581 22.8619C8.76849 23.0639 8.75031 23.2409 8.82475 23.3603C8.92313 23.5183 9.19144 23.5925 9.43407 23.4509C10.1874 23.0103 10.8711 22.1594 11.5491 21.0102ZM19.9884 19.2076C20.9693 19.7681 21.4107 19.7133 21.4886 19.6495C21.5238 19.6213 21.6366 19.5197 21.6089 19.4486C21.5625 19.3287 21.2835 19.1644 20.8095 19.1748C20.6214 19.1791 20.3415 19.1881 19.9884 19.2076ZM15.0085 15.9055C14.9814 15.9665 14.9546 16.0272 14.9275 16.0878C14.3998 17.2746 13.9059 18.386 13.42 19.3899C14.3723 19.1138 15.3404 18.8929 16.3192 18.7284C16.752 18.6541 17.1709 18.5923 17.5684 18.541C16.8937 17.9504 16.2532 17.3235 15.6499 16.663C15.4175 16.4096 15.2038 16.1574 15.0085 15.9064V15.9055ZM14.8966 11.4937C14.8389 11.4937 14.718 11.5671 14.6173 11.77C14.4333 12.1409 14.4307 12.7056 14.6104 13.3192C14.6793 13.5518 14.7664 13.779 14.8709 13.9985L14.9177 13.8949C15.578 12.435 15.3308 11.8386 15.2391 11.6907C15.1626 11.5668 15.0544 11.5042 14.8992 11.4932L14.8966 11.4937Z" fill="#202121"/>
<path d="M2.91043 37H27.482C27.7573 37 28.0299 36.947 28.2842 36.8439C28.5386 36.7409 28.7696 36.5898 28.9643 36.3994C29.159 36.209 29.3134 35.9829 29.4187 35.7341C29.5241 35.4853 29.5783 35.2186 29.5783 34.9493V27.489H0.814453V34.9493C0.814453 35.4932 1.03527 36.0147 1.42833 36.3993C1.8214 36.7839 2.35452 36.9999 2.91043 37Z" fill="#202121"/>
<path d="M10.4527 29.5492H8.0293V34.7512H8.89913V32.7999H10.4524C10.8931 32.7999 11.3157 32.6286 11.6273 32.3238C11.9389 32.019 12.1139 31.6056 12.1139 31.1745C12.1139 30.7435 11.9389 30.3301 11.6273 30.0252C11.3157 29.7204 10.8931 29.5492 10.4524 29.5492H10.4527ZM10.4527 31.9481H8.89913V30.3998H10.4524C10.5564 30.3998 10.6593 30.4199 10.7553 30.4588C10.8513 30.4977 10.9385 30.5547 11.012 30.6266C11.0855 30.6985 11.1438 30.7838 11.1836 30.8777C11.2233 30.9716 11.2438 31.0723 11.2438 31.174C11.2438 31.2756 11.2233 31.3763 11.1836 31.4702C11.1438 31.5642 11.0855 31.6495 11.012 31.7214C10.9385 31.7933 10.8513 31.8503 10.7553 31.8892C10.6593 31.9281 10.5564 31.9481 10.4524 31.9481H10.4527Z" fill="#E7E6E9"/>
<path d="M22.3626 30.4004V29.5492H19.6553H19.2202H18.7852V34.7512H19.6553V32.7999H21.8067V31.9487H19.6553V30.4004H22.3626Z" fill="#E7E6E9"/>
<path d="M15.1467 29.5492H13.3672V34.7986H15.1467C15.7836 34.7979 16.3943 34.5501 16.8447 34.1095C17.2951 33.669 17.5484 33.0716 17.5491 32.4485V31.8993C17.5484 31.2762 17.2951 30.6789 16.8447 30.2383C16.3943 29.7977 15.7836 29.5499 15.1467 29.5492ZM16.6789 32.4485C16.6784 32.8459 16.5168 33.2268 16.2296 33.5078C15.9423 33.7888 15.5529 33.9469 15.1467 33.9474H14.2376V30.4004H15.1467C15.5529 30.4009 15.9423 30.559 16.2296 30.84C16.5168 31.121 16.6784 31.5019 16.6789 31.8993V32.4485Z" fill="#E7E6E9"/>
</g>
<defs>
<clipPath id="clip0_994_28097">
<rect width="28.7638" height="37" fill="white" transform="translate(0.814453)"/>
</clipPath>
</defs>
</svg>
