<svg width="29" height="25" viewBox="0 0 29 25" fill="none" xmlns="http://www.w3.org/2000/svg">
<path d="M13.3884 22.6714L13.3799 22.6669L13.3503 22.6514C13.3251 22.6381 13.2891 22.619 13.2431 22.5943C13.151 22.5448 13.0186 22.4727 12.8515 22.3791C12.5176 22.1921 12.0444 21.9191 11.4784 21.57C10.3488 20.8734 8.83653 19.8665 7.3181 18.629C5.80464 17.3957 4.25072 15.9057 3.06737 14.2374C1.88644 12.5725 1.02344 10.6571 1.02344 8.59864C1.02344 6.76147 1.57577 4.89027 2.75997 3.44816C3.97168 1.97257 5.80874 1 8.17344 1C10.502 1 12.2486 2.71915 13.3861 3.60147C13.6221 3.78457 13.8338 3.96757 14.0211 4.14286C14.2077 3.96779 14.4185 3.78507 14.6537 3.60227C15.7908 2.71843 17.5377 1 19.8734 1C22.245 1 24.083 1.97164 25.2938 3.44913C26.4764 4.89224 27.0234 6.76364 27.0234 8.59864C27.0234 10.6571 26.1604 12.5725 24.9795 14.2374C23.7962 15.9057 22.2422 17.3957 20.7288 18.629C19.2103 19.8665 17.6981 20.8734 16.5685 21.57C16.0024 21.9191 15.5293 22.1921 15.1953 22.3791C15.0283 22.4727 14.8958 22.5448 14.8038 22.5943C14.7577 22.619 14.7218 22.6381 14.6966 22.6514L14.6806 22.6598L14.667 22.6669L14.6585 22.6714L14.6548 22.6733L14.0234 23L13.3921 22.6733L13.3884 22.6714Z" stroke="#202121" stroke-width="2"/>
</svg>
