<svg width="19" height="20" viewBox="0 0 19 20" fill="none" xmlns="http://www.w3.org/2000/svg">
<path d="M0.5 0V5.89655H1.5V0H0.5ZM6.73077 5.89655V1.96552H5.73077V5.89655H6.73077ZM3.11538 1.96552V6.55172H4.11538V1.96552H3.11538ZM4.92308 0.155172C3.92376 0.155172 3.11538 0.966647 3.11538 1.96552H4.11538C4.11538 1.51702 4.47796 1.15517 4.92308 1.15517V0.155172ZM6.73077 1.96552C6.73077 0.966647 5.92239 0.155172 4.92308 0.155172V1.15517C5.3682 1.15517 5.73077 1.51702 5.73077 1.96552H6.73077ZM3.61538 9.01724C5.33692 9.01724 6.73077 7.61911 6.73077 5.89655H5.73077C5.73077 7.06873 4.78272 8.01724 3.61538 8.01724V9.01724ZM0.5 5.89655C0.5 7.61911 1.89385 9.01724 3.61538 9.01724V8.01724C2.44804 8.01724 1.5 7.06873 1.5 5.89655H0.5ZM8.19231 1.15517H16.6923V0.155172H8.19231V1.15517ZM17.5 1.96552V17.6897H18.5V1.96552H17.5ZM16.6923 18.5H3.61538V19.5H16.6923V18.5ZM2.80769 17.6897V10.4828H1.80769V17.6897H2.80769ZM3.61538 18.5C3.17026 18.5 2.80769 18.1382 2.80769 17.6897H1.80769C1.80769 18.6885 2.61607 19.5 3.61538 19.5V18.5ZM17.5 17.6897C17.5 18.1382 17.1374 18.5 16.6923 18.5V19.5C17.6916 19.5 18.5 18.6885 18.5 17.6897H17.5ZM16.6923 1.15517C17.1374 1.15517 17.5 1.51702 17.5 1.96552H18.5C18.5 0.966647 17.6916 0.155172 16.6923 0.155172V1.15517ZM14.7308 5.39655H9.5V6.39655H14.7308V5.39655ZM14.7308 9.32759H9.5V10.3276H14.7308V9.32759ZM14.7308 13.2586H5.57692V14.2586H14.7308V13.2586Z" fill="#202121"/>
</svg>
