<svg width="370" height="379" viewBox="0 0 370 379" fill="none" xmlns="http://www.w3.org/2000/svg">
<path fill-rule="evenodd" clip-rule="evenodd" d="M369 378H1V10.0005H72.1715L80 2.17203L87.8285 10.0005H369V378Z" fill="white"/>
<path d="M1 378V379H0V378H1ZM369 378H370V379H369V378ZM1 10.0005H0V9.00049H1V10.0005ZM72.1715 10.0005L72.8786 10.7076L72.5858 11.0005H72.1715V10.0005ZM80 2.17203L79.2929 1.46492L80 0.757814L80.7071 1.46492L80 2.17203ZM87.8285 10.0005V11.0005H87.4142L87.1214 10.7076L87.8285 10.0005ZM369 10.0005V9.00049H370V10.0005H369ZM1 377H369V379H1V377ZM2 10.0005V378H0V10.0005H2ZM72.1715 11.0005H1V9.00049H72.1715V11.0005ZM80.7071 2.87913L72.8786 10.7076L71.4644 9.29338L79.2929 1.46492L80.7071 2.87913ZM87.1214 10.7076L79.2929 2.87913L80.7071 1.46492L88.5356 9.29338L87.1214 10.7076ZM369 11.0005H87.8285V9.00049H369V11.0005ZM368 378V10.0005H370V378H368Z" fill="#202121"/>
</svg>
